<svg xmlns="http://www.w3.org/2000/svg" width="512" height="512" viewBox="0 0 512 512" version="1.1">
	<path d="M 229.500 62.632 C 227.850 62.804, 206.700 63.632, 182.500 64.474 C 158.300 65.315, 133.325 66.295, 127 66.652 L 115.500 67.300 112.294 70.798 C 108.357 75.092, 105.998 81.706, 106.006 88.428 C 106.013 95.152, 107.323 99.541, 111.100 105.497 C 113.320 108.997, 113.852 110.549, 112.936 110.855 C 112.227 111.091, 109.764 113.019, 107.464 115.140 C 98.410 123.486, 92.882 139.761, 94.990 151.865 C 96.254 159.121, 100.515 168.239, 105.063 173.419 L 108.141 176.925 104.651 180.415 C 97.230 187.837, 91.880 197.921, 90.517 207.059 C 89.044 216.934, 95.158 232.286, 103.777 240.353 L 106.825 243.207 101.867 249.353 C 99.141 252.734, 95.692 257.975, 94.205 261 C 91.758 265.975, 91.501 267.551, 91.515 277.500 C 91.528 287.339, 91.814 289.112, 94.232 294.300 C 95.719 297.490, 97.850 301.385, 98.968 302.955 C 100.085 304.524, 101 306.077, 101 306.404 C 101 306.732, 97.607 307, 93.460 307 C 81.408 307, 75.486 311.318, 69.234 324.664 C 66.825 329.805, 66.500 331.693, 66.500 340.522 C 66.500 349.870, 66.725 351.001, 69.851 357.351 C 71.848 361.406, 75.367 366.287, 78.556 369.426 L 83.910 374.695 80.521 377.979 C 72.770 385.492, 70.072 400.905, 74.710 411.176 C 77.437 417.213, 84.286 424.620, 88.330 425.904 C 90.074 426.458, 105.225 429.207, 122 432.015 C 138.775 434.822, 165.550 439.586, 181.500 442.602 C 197.450 445.618, 215.900 448.515, 222.500 449.038 C 253.770 451.521, 276.102 453.001, 282.272 453 C 288.930 453, 296.659 451.757, 350.500 442.030 C 385.971 435.621, 419.693 430.495, 439.500 428.501 C 448.300 427.615, 456.741 426.409, 458.257 425.821 C 460.283 425.035, 462.005 422.746, 464.757 417.178 C 468.259 410.091, 468.498 409.021, 468.472 400.552 C 468.439 390.262, 465.578 380.029, 461.318 374.967 L 458.822 372 438.911 372 C 421.959 372, 419 371.779, 419 370.513 C 419 368.777, 423.273 366.830, 431 365.045 C 441.392 362.645, 443.858 358.994, 437.427 355.530 C 432.149 352.688, 428.828 346.333, 428.227 337.922 C 427.589 329.012, 429.585 323.593, 435.738 317.527 C 438.264 315.036, 440.144 312.824, 439.916 312.612 C 439.687 312.400, 433.425 311.834, 426 311.354 L 412.500 310.482 417.134 308.348 C 419.683 307.175, 423.733 305.888, 426.134 305.489 C 432.506 304.430, 436 302.371, 436 299.674 C 436 296.403, 434.139 295, 429.803 295 C 421.619 295, 414 283.499, 414 271.144 C 414 258.394, 419.454 248.025, 428.615 243.361 C 434.289 240.471, 434.500 240.223, 434.500 236.432 L 434.500 232.500 426.853 232.425 C 417.046 232.329, 411.091 230.092, 406.565 224.805 C 402.249 219.762, 400 213.314, 400 205.981 C 400 188.938, 410.503 177, 425.496 177 C 432.461 177, 434 175.972, 434 171.319 C 434 167.840, 433.979 167.828, 425.974 166.554 C 421.005 165.764, 415.593 160.910, 412.397 154.379 C 407.331 144.025, 409.217 128.780, 416.634 120.114 C 420.648 115.425, 423.850 113.494, 429.312 112.469 C 434.106 111.570, 435.767 108.819, 433.555 105.443 L 431.967 103.020 386.831 102.760 L 341.696 102.500 339.647 98.553 C 337.444 94.306, 336.366 85.195, 337.409 79.635 C 337.763 77.746, 339.194 74.519, 340.589 72.463 C 342.136 70.184, 342.766 68.366, 342.204 67.804 C 341.698 67.298, 328.057 66.234, 311.891 65.441 C 295.726 64.648, 275.533 63.549, 267.017 62.999 C 252.563 62.066, 236.456 61.909, 229.500 62.632 M 188.500 73.586 C 174.200 74.312, 153.317 75.347, 142.094 75.887 C 117.250 77.081, 117.454 76.978, 117.581 88.279 C 117.631 92.658, 118.324 97.035, 119.343 99.400 L 121.023 103.300 163.262 102.661 C 201.171 102.088, 233.562 100.772, 234.570 99.763 C 234.775 99.559, 233.986 97.458, 232.818 95.097 C 230.527 90.467, 230.021 84.303, 231.311 76.750 L 232.123 72 223.311 72.133 C 218.465 72.206, 202.800 72.860, 188.500 73.586 M 241.759 74.107 C 240.283 75.423, 238.796 77.694, 238.454 79.153 L 237.832 81.806 246.166 82.360 C 264.012 83.544, 302.115 85.031, 314.231 85.016 L 326.962 85 327.589 82.502 C 328.578 78.560, 327.459 77.182, 322.808 76.613 C 314.420 75.585, 274.290 72.842, 259.472 72.282 C 244.656 71.723, 244.405 71.749, 241.759 74.107 M 239 90.777 C 239 91.755, 239.702 93.558, 240.561 94.783 C 243.998 99.690, 245.483 99.896, 285.998 101.078 C 320.335 102.080, 331 101.923, 331 100.415 C 331 100.143, 330.116 98.189, 329.037 96.072 L 327.073 92.223 316.287 91.583 C 294.219 90.273, 262.133 89.011, 250.750 89.006 C 240.155 89.001, 239 89.175, 239 90.777 M 159.500 115.116 C 127.107 116.368, 122.527 116.846, 118.767 119.365 C 107.360 127.006, 102.640 147.493, 109.274 160.563 C 111.928 165.792, 118.447 172.470, 122.302 173.910 C 123.511 174.362, 145.875 174.877, 172 175.055 C 228.544 175.440, 240 175.285, 240 174.132 C 240 173.655, 237.979 170.251, 235.509 166.568 C 224.975 150.859, 225.658 135.132, 237.579 118.892 L 241.170 114 210.835 114.152 C 194.151 114.235, 171.050 114.669, 159.500 115.116 M 314 115.977 C 277.891 116.366, 264.943 116.819, 263.320 117.748 C 260.599 119.305, 257.337 123.809, 256.492 127.175 C 255.966 129.273, 256.265 129.838, 258.176 130.348 C 261.162 131.144, 382.687 129.120, 388.179 128.182 C 391.668 127.587, 392.845 126.713, 395.660 122.629 C 401.077 114.767, 401.483 114.969, 380.750 115.227 C 370.712 115.352, 340.675 115.689, 314 115.977 M 348.500 136.131 C 329.800 136.597, 301.318 137.260, 285.206 137.605 C 252.329 138.308, 253 138.143, 253 145.500 C 253 152.342, 254.270 153.005, 267.321 152.972 C 283.285 152.932, 390.165 150.190, 390.409 149.814 C 390.521 149.641, 390.362 146.350, 390.056 142.500 L 389.500 135.500 386 135.392 C 384.075 135.333, 367.200 135.665, 348.500 136.131 M 329 158.134 C 314.975 158.599, 293.072 159.324, 280.327 159.745 C 267.582 160.167, 256.840 160.826, 256.456 161.211 C 256.072 161.595, 256.919 163.893, 258.340 166.318 C 262.283 173.046, 263.893 173.402, 287.273 172.713 C 331.425 171.411, 402 168.531, 401.995 168.031 C 401.992 167.739, 400.286 165.250, 398.204 162.500 L 394.418 157.500 374.459 157.395 C 363.482 157.337, 343.025 157.670, 329 158.134 M 116.500 187.443 C 108.393 190.380, 101 201.882, 101 211.556 C 101 220.289, 108.258 231.571, 116.299 235.336 C 121.167 237.615, 123.249 237.844, 148.844 238.917 C 172.706 239.917, 190.564 241.165, 250.500 246.021 C 257.650 246.601, 265.162 246.720, 267.194 246.287 L 270.888 245.500 267.410 240 C 258.288 225.573, 257.766 208.227, 266.049 194.766 C 268.109 191.418, 268.631 189.825, 267.758 189.556 C 267.066 189.343, 239.500 188.679, 206.500 188.079 C 173.500 187.480, 140.650 186.765, 133.500 186.492 C 123.636 186.114, 119.535 186.344, 116.500 187.443 M 374 193.535 C 373.175 193.721, 353.852 194.402, 331.059 195.047 C 304.198 195.808, 288.988 196.615, 287.826 197.341 C 285.505 198.790, 283.016 205.073, 282.271 211.358 L 281.683 216.324 292.592 215.680 C 331.785 213.369, 377.649 209.751, 378.496 208.905 C 379.048 208.353, 379.500 204.662, 379.500 200.701 C 379.500 193.140, 378.947 192.420, 374 193.535 M 363.500 216.611 C 362.400 216.797, 346.200 218.091, 327.500 219.487 C 281.868 222.892, 282.998 222.743, 283.010 225.365 C 283.025 228.684, 287.527 237.555, 290.116 239.368 C 291.397 240.266, 294.085 241, 296.090 241 C 299.456 241, 371.608 232.777, 380.361 231.396 L 384.222 230.787 383.583 226.796 C 383.232 224.600, 382.305 221.273, 381.524 219.402 L 380.102 216 372.801 216.136 C 368.785 216.211, 364.600 216.425, 363.500 216.611 M 394.500 246.571 C 383.981 248.967, 335.395 256.801, 308.500 260.439 C 266.582 266.109, 269.216 265.491, 263.964 270.888 C 260.680 274.262, 258.840 277.339, 257.302 282.025 C 256.133 285.586, 255.261 288.587, 255.366 288.694 C 255.470 288.801, 261.704 287.339, 269.219 285.446 C 276.734 283.552, 305.747 277.472, 333.691 271.936 C 403.116 258.180, 404.123 257.901, 407.596 251.451 C 411.057 245.025, 407.351 243.645, 394.500 246.571 M 123.446 250.046 C 118.933 250.975, 116.565 252.551, 112.156 257.560 C 99.319 272.144, 103.568 298.508, 120.132 307.048 C 125.465 309.797, 202.595 328.515, 228.860 333.434 C 237.253 335.006, 247 335.523, 247 334.397 C 247 334.065, 244.907 331.478, 242.348 328.647 C 226.037 310.599, 226.071 286.724, 242.435 266.633 C 247.779 260.071, 247.986 260.230, 232.425 258.956 C 226.334 258.457, 207.209 256.695, 189.925 255.038 C 144.594 250.694, 126.792 249.358, 123.446 250.046 M 335.500 278.437 C 273.600 291.001, 264.069 293.109, 258.352 295.497 C 255.192 296.818, 255 297.180, 255 301.827 C 255 304.954, 255.540 307.203, 256.477 307.981 C 259.466 310.462, 271.389 308.391, 337 293.994 C 371.781 286.362, 393.823 282, 397.609 282 C 399.709 282, 399.850 281.736, 398.975 279.435 C 398.439 278.024, 398 274.424, 398 271.435 C 398 267.685, 397.613 266.040, 396.750 266.130 C 396.063 266.201, 368.500 271.739, 335.500 278.437 M 396.500 288.672 C 389.208 289.743, 356.202 296.640, 330.500 302.465 C 290.949 311.428, 276.850 314.149, 266.219 314.870 L 256.938 315.500 260.219 320.966 C 264.296 327.759, 268.881 331.002, 274.398 330.995 C 281.975 330.985, 410 297.338, 410 295.356 C 410 294.672, 408.988 292.961, 407.750 291.555 C 405.407 288.892, 401.616 287.921, 396.500 288.672 M 89.028 320.630 C 81.598 326.882, 78.111 340.930, 81.453 351.147 C 83.484 357.354, 87.457 363.236, 91.065 365.374 C 92.522 366.238, 102.891 368.197, 115.065 369.909 C 155.705 375.623, 208.824 383.892, 224.142 386.888 C 232.589 388.540, 243.056 390.209, 247.402 390.597 L 255.303 391.303 253.193 389.193 C 248.940 384.940, 246.675 378.869, 246.214 370.488 C 245.800 362.952, 246.464 359.824, 249.740 353.873 C 250.277 352.897, 247.880 352.212, 230.612 348.404 C 221.750 346.450, 205.725 342.664, 195 339.991 C 152.025 329.279, 100.404 318, 94.355 318 C 93.144 318, 90.747 319.184, 89.028 320.630 M 377 332.955 C 354.725 336.666, 325.925 341.407, 313 343.491 C 280.973 348.652, 262.670 352.423, 258.882 354.642 C 255.413 356.673, 252.529 360.239, 251.515 363.750 C 250.918 365.818, 251.190 366, 254.886 366 C 257.097 366, 267.590 364.400, 278.203 362.444 C 288.816 360.488, 309.425 356.702, 324 354.030 C 395.019 341.013, 417.561 336.604, 418.235 335.597 C 419.203 334.152, 419.216 325.970, 418.250 326.103 C 417.837 326.160, 399.275 329.243, 377 332.955 M 399.500 350.146 C 366.514 356.911, 258.366 376.835, 253.844 376.979 C 252.252 377.030, 254.526 381.254, 257.595 383.949 C 261.974 387.794, 266.197 388.492, 276.261 387.032 C 299.865 383.609, 419.845 357.303, 422.331 355.006 C 423.009 354.380, 419.494 345.711, 418.730 346.124 C 418.603 346.193, 409.950 348.002, 399.500 350.146 M 90.017 385.829 C 84.915 390.932, 83.549 401.208, 86.973 408.749 C 88.033 411.086, 89.936 413.426, 91.201 413.950 C 92.465 414.473, 105.875 416.947, 121 419.448 C 136.125 421.948, 159.975 426.036, 174 428.533 C 199.397 433.054, 210 434.631, 209.999 433.890 C 209.999 433.675, 209.089 431.106, 207.977 428.180 C 204.952 420.221, 204.475 412.691, 206.487 404.683 C 207.429 400.934, 207.927 397.594, 207.593 397.260 C 207.259 396.926, 200.351 395.862, 192.243 394.896 C 184.134 393.929, 160.241 390.858, 139.146 388.069 C 118.052 385.281, 99.005 383, 96.820 383 C 93.791 383, 92.173 383.673, 90.017 385.829 M 372.500 389.104 C 326.335 394.717, 291.324 400.271, 286.013 402.824 C 281.778 404.860, 278 410.243, 278 414.242 L 278 417.188 283.250 416.499 C 286.137 416.120, 300.200 414.038, 314.500 411.873 C 351.888 406.210, 372.850 403.298, 386.183 401.914 C 392.609 401.246, 398.419 400.359, 399.093 399.943 C 400.544 399.046, 398.955 394.483, 395.789 390.459 C 394.035 388.229, 393.187 388.012, 386.677 388.126 C 382.730 388.196, 376.350 388.636, 372.500 389.104 M 382.500 409.637 C 377 410.418, 358.325 413.293, 341 416.026 C 323.675 418.759, 302.824 421.894, 294.666 422.991 C 286.507 424.088, 279.419 425.241, 278.916 425.552 C 275.950 427.385, 280.345 436.428, 285.377 438.848 C 287.862 440.043, 291.200 439.673, 314.840 435.585 C 329.503 433.049, 352.750 429.143, 366.500 426.905 C 380.250 424.667, 392.625 422.308, 394 421.664 C 396.837 420.336, 401.510 411.771, 400.638 409.499 C 399.935 407.667, 396.173 407.695, 382.500 409.637 M 237 411.709 C 231.925 413.576, 230.382 419.382, 234 423 C 236.614 425.614, 243.046 425.712, 245.345 423.171 C 250.138 417.875, 243.823 409.201, 237 411.709" stroke="" fill="" fill-rule="evenodd"/>
</svg>