<svg xmlns="http://www.w3.org/2000/svg" width="512" height="512" viewBox="0 0 512 512" version="1.1">
	<path d="M 187.500 33.569 C 183.033 35.886, 182.598 36.578, 182.025 42.275 L 181.500 47.500 155 48.001 C 130.115 48.472, 128.249 48.637, 124.376 50.708 C 119.255 53.445, 115.383 57.948, 113.983 62.795 C 113.234 65.387, 113.001 124.552, 113.206 259.657 L 113.500 452.814 116.589 456.657 C 118.289 458.771, 121.664 461.625, 124.089 463 L 128.500 465.500 254 465.500 L 379.500 465.500 383.956 463 C 386.406 461.625, 389.781 458.549, 391.456 456.164 L 394.500 451.828 394.796 259.664 C 395.007 122.956, 394.778 66.413, 394.001 63.733 C 392.615 58.948, 387.854 53.506, 382.595 50.691 C 378.728 48.622, 377.114 48.489, 353.625 48.309 C 339.944 48.204, 328.132 47.881, 327.375 47.591 C 326.518 47.262, 326 45.520, 326 42.966 C 326 40.712, 325.514 37.960, 324.920 36.850 C 322.363 32.072, 321.296 32, 253.782 32.006 C 198.473 32.012, 190.122 32.208, 187.500 33.569 M 238.500 39.091 C 231.900 41.238, 219.075 45.076, 210 47.622 C 200.925 50.168, 192.730 52.924, 191.788 53.746 C 190.293 55.052, 190.039 57.889, 189.788 76.122 C 189.589 90.533, 189.833 97.002, 190.576 97.001 C 191.908 97, 195.306 93.338, 197.073 90 C 197.889 88.458, 198.557 82.629, 198.815 74.793 L 199.234 62.086 207.367 59.412 C 211.840 57.941, 223.496 53.871, 233.269 50.369 C 243.041 46.866, 252.491 43.994, 254.269 43.986 C 256.046 43.978, 265.825 46.660, 276 49.947 C 286.175 53.234, 297.875 56.953, 302 58.211 L 309.500 60.500 310 75.181 C 310.534 90.859, 311.234 93.088, 316.783 96.772 L 319 98.244 319 76.277 C 319 56.623, 318.816 54.144, 317.250 52.735 C 316.288 51.869, 310.325 50.001, 304 48.583 C 291.990 45.893, 287.225 44.584, 267.692 38.611 C 261.197 36.625, 254.672 35.043, 253.192 35.095 C 251.711 35.147, 245.100 36.945, 238.500 39.091 M 249.500 56.556 C 243.252 59.772, 240.654 66.842, 243.350 73.295 C 245.554 78.570, 248.890 80.340, 255.581 79.785 C 260.161 79.405, 261.697 78.765, 264.319 76.143 C 267.131 73.331, 267.500 72.316, 267.500 67.404 C 267.500 62.263, 267.220 61.589, 263.765 58.423 C 259.520 54.533, 254.666 53.898, 249.500 56.556 M 135.200 82.200 C 134.276 83.124, 134 123.126, 134 256.165 C 134 425.949, 134.033 428.947, 135.934 429.965 C 138.985 431.597, 369.089 431.387, 371.323 429.750 C 372.918 428.581, 373.029 417.391, 373.042 256.136 C 373.052 127.662, 372.763 83.419, 371.905 82.386 C 370.989 81.282, 366.305 81, 348.878 81 L 327 81 327 91.429 C 327 102.991, 327.451 104.004, 333.491 105.997 C 335.421 106.634, 337.034 107.683, 337.077 108.328 C 337.578 115.998, 337.570 126.148, 337.062 126.461 C 335.396 127.492, 261.602 128.135, 219.750 127.485 L 173 126.758 173 116.905 C 173 107.060, 173.003 107.050, 175.879 105.563 C 179.674 103.600, 180 102.491, 180 91.525 C 180 83.957, 179.704 82.100, 178.418 81.607 C 175.273 80.400, 136.468 80.932, 135.200 82.200 M 189 106.959 L 189 111 254.625 111 L 320.250 111 319.615 107.823 C 319.265 106.076, 318.722 104.388, 318.407 104.073 C 318.092 103.758, 288.847 103.369, 253.417 103.209 L 189 102.917 189 106.959 M 167.715 178.696 C 166.130 179.108, 165.962 180.248, 166.215 188.830 L 166.500 198.500 175.500 198.500 L 184.500 198.500 184.790 189.084 C 185.001 182.224, 184.729 179.445, 183.790 178.849 C 182.447 177.997, 170.828 177.887, 167.715 178.696 M 168.642 185.597 C 168.289 188.172, 168 191.566, 168 193.140 L 168 196 174.981 196 C 182.979 196, 183.386 195.503, 182.812 186.434 L 182.500 181.500 175.892 181.208 L 169.283 180.915 168.642 185.597 M 208 191 C 206.625 191.440, 222.739 191.845, 243.809 191.900 C 269.119 191.966, 281.908 191.661, 281.500 191 C 280.754 189.793, 211.768 189.793, 208 191 M 303 191 C 302.006 191.643, 308.682 191.975, 322.809 191.985 C 336.764 191.995, 343.905 191.655, 343.500 191 C 342.691 189.692, 305.025 189.692, 303 191 M 168.215 223.710 C 165.998 224.135, 165.938 224.437, 166.215 233.824 L 166.500 243.500 175.722 243.787 C 184.873 244.072, 184.948 244.055, 185.584 241.523 C 186.699 237.081, 185.583 224.980, 183.964 223.957 C 182.505 223.034, 172.557 222.878, 168.215 223.710 M 169 233.954 L 169 242 176.042 242 L 183.084 242 182.792 234.250 L 182.500 226.500 175.750 226.204 L 169 225.909 169 233.954 M 206 239 C 206 239.649, 219.167 240, 243.500 240 C 267.833 240, 281 239.649, 281 239 C 281 238.351, 267.833 238, 243.500 238 C 219.167 238, 206 238.351, 206 239 M 302 239 C 302 239.635, 309.667 240, 323 240 C 336.333 240, 344 239.635, 344 239 C 344 238.365, 336.333 238, 323 238 C 309.667 238, 302 238.365, 302 239 M 169 270.841 C 166.584 271.561, 166.490 271.912, 166.214 281.293 C 166.032 287.474, 166.304 291.027, 166.964 291.075 C 167.534 291.116, 171.375 291.150, 175.500 291.150 C 179.625 291.150, 183.675 291.116, 184.500 291.075 C 185.715 291.014, 185.997 289.335, 185.985 282.250 C 185.976 277.438, 185.557 272.848, 185.053 272.052 C 184.020 270.419, 173.167 269.600, 169 270.841 M 168.464 278.438 C 168.085 281.477, 168.058 285.097, 168.406 286.482 C 169.006 288.874, 169.390 289, 176.061 289 L 183.084 289 182.792 281.250 L 182.500 273.500 175.827 273.206 L 169.155 272.912 168.464 278.438 M 206 287 C 206 287.649, 219.147 288, 243.441 288 C 267.323 288, 281.106 287.638, 281.500 287 C 281.908 286.340, 269.177 286, 244.059 286 C 219.353 286, 206 286.351, 206 287 M 302 287 C 302 287.635, 309.667 288, 323 288 C 336.333 288, 344 287.635, 344 287 C 344 286.365, 336.333 286, 323 286 C 309.667 286, 302 286.365, 302 287 M 167.716 317.696 C 166.127 318.109, 165.963 319.271, 166.216 328.330 L 166.500 338.500 176 338.500 L 185.500 338.500 185.789 329.149 C 185.975 323.114, 185.666 319.302, 184.916 318.399 C 183.784 317.035, 172.097 316.557, 167.716 317.696 M 168.607 321.582 C 167.830 323.606, 167.845 331.819, 168.630 334.750 C 169.182 336.807, 169.824 337, 176.117 337 L 183 337 183 328.500 L 183 320 176.107 320 C 170.744 320, 169.079 320.351, 168.607 321.582 M 207.500 335 C 210.397 336.245, 280.731 336.245, 281.500 335 C 281.908 334.340, 269.111 334.024, 243.809 334.070 C 221.494 334.111, 206.335 334.499, 207.500 335 M 302 335 C 302 335.635, 309.647 336, 322.941 336 C 335.823 336, 344.120 335.615, 344.500 335 C 344.905 334.345, 337.677 334, 323.559 334 C 309.853 334, 302 334.364, 302 335 M 169.750 363.673 L 166 364.121 166 373.477 C 166 378.687, 166.434 382.981, 166.979 383.167 C 167.517 383.350, 171.905 383.275, 176.729 383 L 185.500 382.500 185.756 374.500 C 185.896 370.100, 185.629 365.912, 185.162 365.194 C 184.242 363.779, 175.818 362.947, 169.750 363.673 M 168.625 369.125 C 167.833 373.085, 167.825 377.381, 168.607 379.418 C 169.041 380.549, 170.537 380.996, 173.857 380.986 C 182.562 380.961, 183 380.601, 183 373.490 C 183 366.280, 182.684 366, 174.543 366 C 169.415 366, 169.231 366.097, 168.625 369.125 M 209.500 382.006 L 204.500 382.512 208.500 383.245 C 214.559 384.355, 279.241 384.137, 281 383 C 281.825 382.467, 282.050 381.961, 281.500 381.875 C 278.770 381.450, 213.826 381.568, 209.500 382.006 M 301.999 382.750 C 302 384.300, 341.522 384.583, 342.476 383.040 C 342.845 382.441, 335.331 381.970, 322.534 381.790 C 306.617 381.565, 301.998 381.781, 301.999 382.750" stroke="none" fill="" fill-rule="evenodd"/>
</svg>