<svg xmlns="http://www.w3.org/2000/svg" width="512" height="512" viewBox="0 0 512 512" version="1.1">
	<path d="M 298 27.894 C 296.625 28.351, 278.400 36.491, 257.500 45.983 C 213.702 65.874, 168.642 85.857, 138.500 98.755 C 113.226 109.571, 88.763 120.507, 86.042 122.206 C 82.390 124.486, 81.857 127.918, 82.185 147.006 C 82.471 163.611, 82.671 165.387, 84.371 166.393 C 90.582 170.070, 92.765 172.051, 95 176.039 C 97.437 180.387, 97.508 181.089, 97.817 203.823 C 98.157 228.839, 97.531 234.424, 93.526 242.114 L 91.123 246.729 91.720 331.696 L 92.318 416.664 89.937 418.332 C 88.627 419.249, 86.841 420, 85.969 420 C 85.096 420, 83.540 420.616, 82.511 421.368 C 80.843 422.588, 80.664 424.019, 80.854 434.618 C 81.028 444.349, 81.380 446.814, 82.795 448.234 C 84.149 449.592, 90.596 450.738, 112.512 453.517 C 156.757 459.126, 177.529 462.510, 223 471.517 C 246.375 476.147, 273.825 481.341, 284 483.060 C 304.080 486.452, 308.290 486.494, 333.531 483.558 C 348.317 481.839, 349.094 481.218, 349.777 470.577 L 350.263 463 365.711 463 C 374.207 463, 385.286 463.480, 390.330 464.067 C 398.656 465.035, 400.782 464.896, 413.421 462.548 C 421.077 461.125, 427.951 459.455, 428.697 458.837 C 429.748 457.964, 429.990 454.439, 429.776 443.106 L 429.500 428.500 422.500 428.256 C 410.298 427.829, 409.543 427.526, 404.642 421.081 C 399.016 413.683, 397.866 411.514, 398.581 409.649 C 398.897 408.827, 404.896 402.996, 411.912 396.693 L 424.669 385.232 425.335 318.951 C 425.701 282.496, 426 227.563, 426 196.878 L 426 141.085 422.368 138.293 C 413.860 131.750, 411.901 129.692, 412.200 127.602 C 412.458 125.795, 413.272 125.464, 418 125.241 C 428.780 124.733, 428 125.925, 428 109.958 L 428 95.955 419.750 90.645 C 415.212 87.724, 406.100 82.172, 399.500 78.307 C 346.104 47.037, 319.249 31.555, 315.614 29.947 C 310.646 27.750, 301.602 26.695, 298 27.894 M 322.455 52.455 C 319.417 55.492, 319.133 61.914, 321.816 66.917 C 323.716 70.460, 325.801 71.833, 348.516 84.500 C 355.420 88.350, 364.709 94.107, 369.159 97.293 C 373.608 100.479, 377.442 102.891, 377.679 102.654 C 377.917 102.417, 375.616 100.035, 372.568 97.361 C 364.006 89.852, 365.310 89.388, 378.366 95.296 C 385.016 98.305, 385.276 98.343, 386.616 96.510 C 388.970 93.291, 388.312 89.172, 384.953 86.105 C 383.278 84.574, 374.737 79.087, 365.973 73.911 C 357.209 68.735, 344.743 61.238, 338.270 57.252 C 331.796 53.265, 326.142 50.002, 325.705 50.002 C 325.267 50.001, 323.805 51.105, 322.455 52.455 M 288.052 71.060 C 264.942 77.111, 237.013 88.631, 194.478 109.659 C 177.044 118.277, 157.336 127.175, 147.478 130.880 C 132.286 136.589, 102.335 148.811, 97.737 151.177 C 95.632 152.260, 96.527 154.468, 101.296 159.954 C 102.947 161.854, 105.461 165.904, 106.884 168.954 L 109.470 174.500 110.570 232 C 111.175 263.625, 111.804 289.275, 111.967 289 C 112.131 288.725, 112.584 261.725, 112.975 229 C 113.748 164.238, 113.672 165.071, 119.683 155.926 C 123.166 150.629, 125.848 148.988, 150.742 136.919 C 205.332 110.455, 274.166 84, 288.432 84 C 299.099 84, 312.585 95.283, 344.479 130.890 C 355.124 142.776, 367.936 157, 372.951 162.500 C 377.965 168, 382.840 173.850, 383.784 175.500 C 385.356 178.249, 385.517 184.490, 385.698 250 C 385.869 311.900, 386.091 321.500, 387.354 321.500 C 388.614 321.500, 388.889 311.842, 389.369 250.855 L 389.925 180.209 384.010 171.855 C 380.757 167.260, 374.406 158.100, 369.897 151.500 C 359.147 135.765, 341.956 113.465, 333.019 103.661 C 327.432 97.531, 325.950 95.271, 326.192 93.243 C 326.677 89.168, 328.646 89.503, 331.693 94.178 C 333.237 96.546, 338.553 103.438, 343.508 109.492 C 348.462 115.546, 356.536 125.900, 361.450 132.500 C 371.583 146.108, 375.854 151, 377.602 151 C 378.940 151, 382 142.929, 382 139.398 C 382 136.760, 373.991 129.234, 351.012 110.277 C 337.008 98.724, 335.466 97.138, 334.915 93.722 C 334.247 89.577, 332.879 88.200, 325.690 84.429 C 323.044 83.041, 318.193 79.435, 314.909 76.416 C 311.625 73.397, 307.798 70.493, 306.404 69.963 C 302.594 68.515, 296.347 68.888, 288.052 71.060 M 209 92.929 C 183.997 101.868, 99.465 135.485, 94 138.662 C 90.041 140.963, 94.281 139.674, 104 135.621 C 120.462 128.757, 198.645 98.141, 210.500 93.916 C 221.369 90.042, 226.077 87.910, 223.450 88.051 C 222.928 88.079, 216.425 90.274, 209 92.929 M 395.789 97.058 C 393.575 98.349, 391.867 104.531, 392.951 107.335 C 394.011 110.078, 397.831 113.567, 400.738 114.449 C 403.806 115.379, 408.589 112.386, 410.513 108.331 C 411.875 105.462, 411.886 104.664, 410.614 101.618 C 409.819 99.717, 408.261 97.675, 407.150 97.080 C 404.641 95.737, 398.077 95.724, 395.789 97.058 M 398.655 100.829 C 395.213 104.632, 397.294 111, 401.978 111 C 407.159 111, 409.961 104.085, 406.171 100.655 C 403.772 98.484, 400.713 98.555, 398.655 100.829 M 300.197 111.910 C 303.802 114.196, 305.506 116.282, 308.143 121.636 L 311.500 128.451 312.049 161.476 L 312.598 194.500 312.799 161.432 C 313.033 122.952, 312.645 120.381, 305.521 113.258 C 302.518 110.255, 300.430 109, 298.436 109 C 295.736 109, 295.816 109.131, 300.197 111.910 M 253 128.878 C 242.275 133.204, 224.500 140.672, 213.500 145.473 C 189.973 155.743, 154.569 170.843, 147.603 173.577 C 144.909 174.635, 141.759 176.770, 140.603 178.323 C 138.515 181.125, 138.494 181.815, 137.710 273.323 C 137.275 324.020, 137.197 367.456, 137.536 369.847 C 137.958 372.830, 139.149 375.229, 141.326 377.487 C 144.254 380.525, 147.131 381.526, 178.500 390.421 C 197.200 395.723, 226.341 404.371, 243.258 409.637 C 264.835 416.355, 274.785 419.020, 276.594 418.566 C 280.345 417.624, 288.201 409.869, 291.578 403.774 L 294.500 398.500 294.765 269.541 L 295.030 140.581 292.503 135.416 C 291.113 132.575, 287.750 128.169, 285.031 125.625 C 278.135 119.175, 276.692 119.322, 253 128.878 M 253 158.341 L 243.500 161.500 243.251 176.500 C 243.114 184.750, 243.412 192.137, 243.913 192.916 C 244.679 194.108, 246.378 193.882, 254.662 191.489 C 260.073 189.926, 265.288 187.982, 266.250 187.168 C 267.756 185.896, 268 183.822, 268 172.279 C 268 158.520, 267.210 154.932, 264.215 155.091 C 263.272 155.141, 258.225 156.603, 253 158.341 M 372.571 173.571 C 371.167 174.976, 371 184.454, 371 262.902 L 371 350.661 368.687 355.081 C 367.415 357.511, 363.417 364.900, 359.804 371.500 C 356.190 378.100, 352.923 384.625, 352.542 386 C 352.161 387.375, 354.705 383.325, 358.195 377 C 361.684 370.675, 367.680 360.775, 371.519 355 L 378.500 344.500 378.772 260.103 C 379.023 182.294, 378.913 175.562, 377.367 173.853 C 375.322 171.593, 374.593 171.550, 372.571 173.571 M 248.571 212.319 C 242.772 219.921, 242.795 219.648, 242.960 278.369 C 243.124 336.712, 243.072 336.127, 248.696 343.742 C 253.617 350.407, 258.742 348.950, 263.035 339.666 L 265.886 333.500 266.111 278 C 266.355 217.444, 266.512 219.306, 260.563 212.250 C 256.711 207.682, 252.087 207.709, 248.571 212.319 M 252.075 221.859 C 250.961 223.941, 250.409 330.396, 251.498 333.173 C 251.859 334.093, 252.895 335.130, 253.801 335.477 C 257.806 337.014, 257.992 334.782, 258.181 283.059 C 258.280 255.801, 258.288 231.475, 258.198 229 C 257.923 221.457, 254.455 217.412, 252.075 221.859 M 108.500 329.753 C 105.507 339.479, 105.500 339.555, 105.500 364.500 C 105.500 388.640, 105.581 389.680, 107.863 394.727 C 110.351 400.230, 117.216 407.371, 121.631 409.050 C 123.070 409.597, 135.779 412.919, 149.874 416.431 C 163.968 419.944, 185.400 425.856, 197.500 429.568 C 244.794 444.078, 251.338 445.999, 253.383 445.970 C 255.271 445.942, 255.315 445.831, 253.789 444.942 C 250.727 443.157, 203.936 426.394, 187.040 421.029 C 177.986 418.154, 160.941 412.916, 149.161 409.387 C 124.210 401.914, 121.923 400.943, 117.973 396.151 C 111.939 388.831, 111.500 385.786, 111.500 351.250 C 111.500 334.062, 111.500 320.001, 111.500 320.003 C 111.500 320.004, 110.150 324.392, 108.500 329.753 M 244 368.965 C 244 385.384, 243.555 384.761, 255.605 385.207 L 263.500 385.500 263.780 371.508 C 264.117 354.656, 264.356 355, 252.309 355 L 244 355 244 368.965 M 376.736 364.870 C 374.813 366.999, 371.320 372.061, 368.973 376.120 C 359.017 393.340, 343.361 418.652, 339.438 423.870 C 330.970 435.136, 324.262 439, 313.175 439 C 308.817 439, 303.507 439.612, 301.376 440.360 C 298.504 441.368, 293.613 441.598, 282.500 441.247 C 268.500 440.804, 267.328 440.909, 264.929 442.818 C 260.213 446.570, 258.276 458.765, 261.428 464.860 C 263.085 468.065, 264.543 468.504, 277.164 469.597 C 289.732 470.685, 291.695 469.409, 293.103 459.231 C 294.096 452.059, 298.242 445.215, 302.729 443.340 C 305.556 442.159, 308.767 442.004, 318.706 442.570 L 331.145 443.279 356.322 417.549 C 370.170 403.397, 381.906 390.787, 382.402 389.527 C 383.089 387.781, 382.791 386.515, 381.152 384.213 C 378.233 380.114, 378.445 377.396, 382 373.347 C 385.098 369.819, 385.763 366.294, 383.965 362.934 C 382.433 360.072, 380.636 360.554, 376.736 364.870 M 96 426.694 C 95.175 426.989, 93.938 427.939, 93.250 428.806 C 91.656 430.816, 91.621 439.221, 93.200 440.800 C 95.005 442.605, 106 442.391, 106 440.550 C 106 439.486, 104.470 439.020, 100.260 438.800 C 94.077 438.477, 93.162 437.476, 94.430 432.421 C 94.937 430.404, 95.661 429.998, 98.769 429.986 C 103.973 429.967, 107 429.010, 107 427.383 C 107 426.389, 105.666 426.022, 102.250 426.079 C 99.638 426.122, 96.825 426.399, 96 426.694 M 403.308 433.972 C 397.770 436.298, 396.062 444.470, 399.968 449.955 C 405.479 457.695, 418.028 450.217, 415.621 440.626 C 414.213 435.015, 408.358 431.851, 403.308 433.972 M 403.635 438.073 C 398.881 441.812, 401.194 451, 406.889 451 C 409.771 451, 412.924 447.864, 413.609 444.316 C 414.105 441.748, 413.727 440.636, 411.657 438.566 C 408.549 435.458, 407.074 435.368, 403.635 438.073 M 279.880 447.747 C 264.422 448.096, 262.600 448.931, 262.600 455.667 C 262.600 460.851, 264.752 461.965, 275.191 462.188 C 280.036 462.291, 285.211 462.403, 286.690 462.438 C 289.102 462.494, 289.550 461.930, 291.017 457 C 291.917 453.975, 293.197 450.488, 293.862 449.250 C 294.527 448.012, 294.717 447.099, 294.285 447.219 C 293.853 447.340, 287.371 447.577, 279.880 447.747 M 323.789 451.058 C 321.305 452.507, 319.963 458.283, 321.130 462.509 C 323.099 469.641, 330.235 470.860, 334.084 464.723 C 336.463 460.929, 336.157 454.936, 333.430 451.922 C 331.548 449.844, 326.629 449.403, 323.789 451.058 M 326.350 451.994 C 325.168 452.471, 323.692 454.403, 323.070 456.287 C 320.342 464.555, 327.904 470.752, 332.927 464.365 C 335.733 460.799, 335.582 456.491, 332.545 453.455 C 329.875 450.784, 329.543 450.706, 326.350 451.994" stroke="" fill="" fill-rule="evenodd"/>
</svg>