<svg xmlns="http://www.w3.org/2000/svg" width="512" height="512" viewBox="0 0 512 512" version="1.1">
	<path d="M 121.250 50.820 C 119.004 51.139, 119 51.172, 118.944 71.320 C 118.908 84.207, 118.456 92.752, 117.694 94.965 C 115.769 100.553, 111.564 102.645, 100.603 103.467 C 95.399 103.857, 90.322 104.774, 89.321 105.505 C 87.753 106.650, 87.454 108.651, 87.171 119.916 C 86.772 135.731, 86.611 135.946, 75.027 136.100 C 64.080 136.245, 62.662 136.821, 61.653 141.540 C 60.110 148.750, 60.827 148.451, 43.748 149 C 23.285 149.658, 24 149.058, 24 165.578 C 24 176.799, 23.808 178.088, 21.749 180.673 L 19.498 183.500 19.999 223.840 L 20.500 264.180 22.861 266.090 C 24.977 267.802, 26.995 268.002, 42.361 268.015 C 51.787 268.024, 59.995 268.361, 60.600 268.765 C 63.469 270.681, 64 274.367, 64 292.362 L 64 310.855 66.635 312.927 C 68.790 314.622, 70.693 315, 77.079 315 C 83.890 315, 85.247 315.308, 87.694 317.411 L 90.500 319.823 90.500 333.644 L 90.500 347.464 84 351.715 C 74.874 357.681, 66.603 366.249, 62.769 373.706 C 60.520 378.080, 58.765 380.252, 57.145 380.667 C 52.592 381.832, 42.274 380.162, 37.005 377.407 C 30.959 374.246, 24.887 373.887, 21.979 376.519 C 20.112 378.209, 20 379.663, 20 402.232 L 20 426.154 22.923 429.077 C 27.508 433.662, 34.846 433.081, 40.793 427.660 C 42.714 425.910, 44.399 425.565, 51.168 425.535 L 59.249 425.500 63.146 432 C 68.178 440.392, 79.267 451.096, 86.944 454.972 C 97.983 460.544, 110.040 462.215, 122.566 459.907 C 128.476 458.818, 139 454.491, 139 453.150 C 139 452.763, 137.636 450.953, 135.969 449.128 C 133.836 446.792, 132.430 446.015, 131.219 446.504 C 130.274 446.886, 125.958 447.911, 121.629 448.781 C 95.884 453.956, 70.285 435.893, 67.118 410.317 C 64.609 390.056, 72.182 372.742, 88.359 361.756 C 96.098 356.501, 104.199 354, 113.484 354 C 126.780 354, 138.326 359.069, 148.258 369.264 C 152.758 373.885, 158.997 384.581, 158.999 387.680 C 159 388.329, 162.366 390.480, 166.481 392.459 C 179.825 398.877, 185.580 406.651, 191.678 426.500 C 196.589 442.483, 205.943 452.986, 218.855 457.017 C 224.979 458.928, 228.244 459, 308.524 459 C 354.346 459, 392.548 458.727, 393.418 458.393 C 394.804 457.861, 395 454.599, 395 432.093 C 395 413.443, 395.329 406.071, 396.200 405.200 C 397.005 404.395, 401.505 404, 409.871 404 C 420.016 404, 422.680 403.695, 424.151 402.364 C 425.674 400.985, 428.264 400.757, 440.563 400.916 C 456.123 401.118, 458 400.637, 458 396.449 C 458 391.825, 460.207 391, 472.571 391 C 482.667 391, 484.233 390.767, 486 389 C 487.950 387.050, 488 385.667, 488 333.411 L 488 279.822 483.500 275.448 L 479 271.075 479 255.094 C 479 236.200, 478.889 236, 468.359 236 C 459.563 236, 459 235.641, 459 230.028 C 459 226.728, 458.365 224.462, 456.927 222.635 L 454.855 220 437.862 220 C 428.060 220, 420.050 220.438, 418.934 221.035 C 417.171 221.979, 417 223.244, 417 235.313 C 417 252.745, 416.836 253, 405.598 253 C 393.320 253, 393.826 254.174, 394.196 226.529 C 394.479 205.413, 394.635 203.737, 396.441 202.418 C 397.915 201.341, 402.042 201, 413.580 201 C 432.531 201, 433.245 200.630, 434 190.417 C 434.494 183.734, 434.552 183.619, 439 180.495 L 443.500 177.334 443.772 158.642 C 443.936 147.374, 443.642 139.199, 443.030 138.057 C 442.473 137.015, 440.719 135.878, 439.134 135.529 C 433.355 134.260, 432.202 131.693, 431.833 119.283 C 431.396 104.569, 431.519 104.693, 416.584 103.890 C 404.107 103.219, 403.233 102.862, 397.623 96.148 L 394 91.811 393.985 72.655 C 393.976 62.120, 393.576 52.878, 393.094 52.118 C 392.358 50.955, 370.986 50.718, 257.860 50.618 C 183.962 50.553, 122.487 50.644, 121.250 50.820 M 133 65.288 C 129.920 66.837, 129.087 71.944, 131.517 74.375 C 133.368 76.225, 137.215 76.491, 140.066 74.965 C 142.880 73.459, 142.700 67.604, 139.777 65.557 C 137.106 63.685, 136.251 63.651, 133 65.288 M 371.657 66.055 C 366.975 69.738, 368.995 76.333, 374.805 76.333 C 378.966 76.333, 381 74.418, 381 70.500 C 381 65.070, 375.959 62.671, 371.657 66.055 M 167 66.701 C 166.175 67.009, 164.768 67.897, 163.873 68.674 C 162.394 69.959, 162.180 81.707, 161.517 198.293 C 160.853 315.169, 160.643 326.666, 159.144 328.383 C 158.240 329.419, 153.384 332.184, 148.353 334.528 C 140.330 338.265, 139.123 339.163, 138.536 341.836 C 137.606 346.070, 138.987 348.102, 146.385 353.381 C 154.226 358.976, 161.563 367.052, 166.098 375.081 C 172.562 386.524, 171.260 385.797, 185.965 386.171 L 198.909 386.500 202.747 390.250 L 206.584 394 269.211 394 L 331.838 394 342.919 383.036 L 354 372.071 354 249.398 L 354 126.725 344.437 117.363 C 335.295 108.412, 334.681 108, 330.473 108 C 327.144 108, 325.818 108.472, 325.035 109.934 C 324.358 111.199, 324 130.485, 324 165.637 L 324 219.405 327.250 222.755 L 330.500 226.105 330.811 239.803 C 331.102 252.575, 330.964 253.804, 328.768 258 C 327.084 261.218, 325.154 263.141, 321.994 264.750 C 317.963 266.803, 316.188 267, 301.722 267 C 292.564 267, 285.040 267.443, 283.907 268.050 C 282.120 269.006, 281.964 270.077, 282.153 280.066 L 282.361 291.033 279.128 294.367 L 275.896 297.702 278.432 299.364 C 279.827 300.278, 281.257 302.177, 281.611 303.586 C 281.969 305.014, 283.331 306.556, 284.692 307.073 C 286.033 307.583, 296.481 308, 307.910 308 C 326.771 308, 328.843 308.169, 330.345 309.829 C 332.613 312.335, 332.420 314.593, 329.777 316.443 C 327.976 317.705, 324.327 317.999, 310.527 317.994 C 282.560 317.985, 276.494 315.990, 271.378 305.123 C 269.922 302.030, 268.270 299.204, 267.707 298.843 C 267.143 298.481, 264.768 298.214, 262.427 298.250 C 260.087 298.285, 256.763 297.730, 255.039 297.016 C 250.182 295.004, 249 291.593, 249 279.585 C 249 270.213, 248.790 268.958, 247.066 268.035 C 245.908 267.415, 236.659 267, 224.016 267 C 195.687 267, 195.072 266.663, 193.875 250.500 C 193.508 245.550, 192.895 240.531, 192.513 239.346 C 191.596 236.508, 194.903 235.366, 198.734 237.198 C 201.396 238.471, 201.510 238.839, 201.778 247.010 C 201.992 253.529, 202.443 255.790, 203.719 256.750 C 204.938 257.666, 211.553 258, 228.469 258 C 254.185 258, 254.910 258.167, 257.024 264.573 C 257.813 266.965, 257.968 271.088, 257.493 277.088 C 256.612 288.217, 257.109 289, 265.051 289 C 273.673 289, 274.408 287.905, 273.703 276.098 C 273.093 265.878, 274.235 261.007, 277.665 259.188 C 278.674 258.653, 287.928 258.051, 298.228 257.851 C 322.455 257.381, 321.627 257.979, 321.205 241.255 C 320.928 230.319, 320.736 229.343, 318.205 226.035 L 315.500 222.500 315.505 158.166 C 315.510 97.618, 315.615 93.755, 317.292 92.529 C 319.126 91.188, 335.068 91.497, 337.765 92.926 C 338.460 93.294, 341.209 96.624, 343.873 100.324 C 346.537 104.024, 351.368 109.091, 354.608 111.584 C 357.849 114.077, 361.063 116.851, 361.750 117.749 C 362.735 119.036, 363 146.902, 363 249.290 L 363 379.199 355.685 386.349 C 351.662 390.282, 344.607 397.438, 340.008 402.250 C 332.504 410.101, 331.907 411, 334.191 411 C 335.784 411, 339.683 408.707, 344.618 404.867 C 348.953 401.493, 356.320 396.885, 360.990 394.627 C 371.083 389.745, 376.441 384.779, 378.062 378.803 C 378.933 375.590, 379.127 341.181, 378.828 242.957 C 378.367 91.890, 379.579 107.791, 368 100.870 C 359.853 96, 352.422 89.717, 350.565 86.126 C 349.782 84.612, 348.824 80.564, 348.435 77.130 C 348.032 73.570, 346.965 69.944, 345.953 68.693 L 344.177 66.500 256.339 66.321 C 208.027 66.222, 167.825 66.393, 167 66.701 M 178.571 100.571 C 177.175 101.968, 177.002 109.297, 177.015 166.321 C 177.024 201.620, 177.396 231.076, 177.843 231.780 C 178.486 232.794, 191.989 233.105, 242.906 233.280 C 305.487 233.494, 307.195 233.450, 308.579 231.559 C 309.772 229.929, 310 219.386, 310 165.866 L 310 102.113 307.777 100.557 C 305.823 99.188, 297.984 99, 242.849 99 C 187.177 99, 179.967 99.176, 178.571 100.571 M 137.050 105.440 C 134.945 107.976, 136.176 112.350, 139.303 113.443 C 142.894 114.699, 145.390 113.223, 145.822 109.589 C 146.240 106.075, 144.449 104, 141 104 C 139.485 104, 137.707 104.648, 137.050 105.440 M 100 122 C 98.086 123.914, 98 125.333, 98 154.977 L 98 185.954 100.500 187.592 C 102.435 188.860, 104.229 189.077, 108.430 188.552 C 111.417 188.179, 114.304 187.339, 114.846 186.686 C 115.432 185.979, 115.952 172.881, 116.128 154.357 C 116.365 129.520, 116.155 122.891, 115.090 121.608 C 113.021 119.116, 102.614 119.386, 100 122 M 396.200 121.200 C 395.316 122.084, 395 130.916, 395 154.721 L 395 187.043 397.500 188.182 C 401.216 189.875, 404.734 187.946, 405.501 183.796 C 405.835 181.983, 405.972 167.526, 405.805 151.668 C 405.517 124.473, 405.390 122.756, 403.559 121.418 C 401.186 119.685, 397.815 119.585, 396.200 121.200 M 216.571 123.571 C 215.212 124.931, 215 129.224, 215 155.371 C 215 177.549, 215.320 185.920, 216.200 186.800 C 218.021 188.621, 221.763 188.237, 224 186 C 225.909 184.091, 226 182.667, 226 154.655 C 226 127.496, 225.864 125.187, 224.171 123.655 C 221.867 121.569, 218.609 121.533, 216.571 123.571 M 269.027 148.956 C 256.053 149.480, 255.510 149.589, 254.359 151.901 C 253.076 154.480, 254.092 158.802, 256.313 160.214 C 258.038 161.312, 283.420 161.171, 286.374 160.048 C 289.468 158.871, 291.354 155.546, 290.609 152.578 C 290.053 150.363, 286.020 147.810, 283.703 148.206 C 283.041 148.319, 276.437 148.656, 269.027 148.956 M 236.956 150.553 C 236.247 151.408, 235.667 153.409, 235.667 155 C 235.667 158.805, 237.606 161, 240.967 161 C 245.877 161, 248.512 155.694, 245.965 150.934 C 244.682 148.537, 238.834 148.290, 236.956 150.553 M 424.893 152.366 C 421.306 154.154, 421.514 159.870, 425.241 161.962 C 428.150 163.594, 430.383 162.925, 432.330 159.838 C 435.042 155.540, 429.564 150.037, 424.893 152.366 M 32.054 167.435 C 30.034 169.869, 31.171 175.289, 34 176.712 C 37.037 178.241, 69.536 178.507, 73.407 177.035 C 76.429 175.886, 77.712 171.858, 76.148 168.426 L 75.043 166 54.144 166 C 37.210 166, 33.019 166.272, 32.054 167.435 M 235.571 175.571 C 233.570 177.573, 233.564 180.933, 235.557 183.777 C 237.089 185.966, 237.472 186, 260.334 186 C 286.021 186, 288 185.578, 288 180.098 C 288 174.287, 286.718 174, 260.743 174 C 240.622 174, 236.911 174.232, 235.571 175.571 M 139.200 178.200 C 137.465 179.935, 137.465 311.065, 139.200 312.800 C 141.037 314.637, 144.808 314.228, 145.965 312.066 C 146.648 310.789, 147 288.027, 147 245.137 C 147 187.385, 146.825 179.968, 145.429 178.571 C 143.557 176.700, 140.861 176.539, 139.200 178.200 M 30.019 196.965 C 29.338 198.236, 29.061 208.384, 29.234 225.715 L 29.500 252.500 62.615 252.186 C 92.200 251.906, 95.904 252.047, 97.365 253.508 C 98.722 254.865, 99 257.510, 99 269.052 L 99 282.962 101.589 283.612 C 103.990 284.214, 114.768 283.566, 115.563 282.771 C 115.757 282.577, 115.992 273.327, 116.086 262.216 C 116.212 247.304, 115.929 241.620, 115.006 240.507 C 113.937 239.219, 108.866 239, 80.100 239 C 51.258 239, 46.127 238.777, 44.223 237.443 C 42.059 235.928, 42 235.383, 42 217.015 C 42 195.701, 41.776 195, 34.964 195 C 32.117 195, 30.788 195.528, 30.019 196.965 M 215.200 197.200 C 213.378 199.022, 213.753 204.466, 215.829 206.345 C 217.336 207.709, 219.976 208, 230.829 208 C 242.667 208, 244.202 207.798, 246 206 C 247.100 204.900, 248 203.100, 248 202 C 248 200.900, 247.100 199.100, 246 198 C 244.193 196.193, 242.667 196, 230.200 196 C 220.800 196, 216.017 196.383, 215.200 197.200 M 284.215 196.846 C 282.385 198.007, 281.572 204.332, 282.927 206.863 C 284.188 209.221, 286.940 209.660, 288.800 207.800 C 289.460 207.140, 290 204.755, 290 202.500 C 290 197.007, 287.623 194.684, 284.215 196.846 M 68.556 221.910 C 68.247 222.410, 68.268 223.535, 68.604 224.410 C 69.136 225.797, 72.023 226, 91.173 226 C 113.254 226, 117.478 225.410, 116.356 222.485 C 115.874 221.230, 112.164 221, 92.452 221 C 79.518 221, 68.867 221.405, 68.556 221.910 M 437.667 244.667 C 437.300 245.033, 437 252.358, 437 260.944 C 437 280.950, 436.973 281, 425.978 281 C 419.183 281, 417.925 281.272, 417.035 282.934 C 416.357 284.201, 416 304.044, 416 340.434 C 416 395.002, 416.035 396, 417.965 396 C 420.129 396, 422 393.260, 422 390.089 C 422 386.439, 425.697 385.228, 438.170 384.788 C 445.780 384.520, 450.390 383.921, 451.420 383.066 C 452.831 381.895, 453 374.626, 453 315.100 C 453 238.442, 453.695 244, 444.110 244 C 440.933 244, 438.033 244.300, 437.667 244.667 M 85.115 289.908 C 84.198 290.489, 83.951 291.667, 84.384 293.393 L 85.038 296 100.500 296 L 115.962 296 116.575 293.557 C 116.912 292.213, 116.894 290.638, 116.535 290.057 C 115.734 288.760, 87.142 288.624, 85.115 289.908 M 327.280 290.088 C 322.967 291.692, 323.438 298.558, 328.030 301.016 C 329.646 301.881, 330.476 301.615, 332.507 299.584 C 335.248 296.843, 335.670 294.213, 333.750 291.831 C 332.023 289.687, 329.898 289.115, 327.280 290.088 M 466.571 292.571 C 465.239 293.904, 465 297.466, 465 316.036 C 465 336.658, 465.112 337.990, 466.934 338.965 C 469.530 340.354, 473.326 340.274, 474.800 338.800 C 476.501 337.099, 476.501 293.901, 474.800 292.200 C 473.101 290.501, 468.431 290.712, 466.571 292.571 M 395.200 293.200 C 394.339 294.061, 394 300.674, 394 316.633 C 394 338.245, 394.058 338.884, 396.072 339.523 C 397.212 339.885, 399.237 339.906, 400.572 339.571 L 403 338.962 403 316.681 C 403 293.291, 402.765 292, 398.500 292 C 397.345 292, 395.860 292.540, 395.200 293.200 M 229.923 321.923 C 227.147 324.699, 227 325.277, 227 333.423 L 227 342 223.434 342 C 218.275 342, 216 343.534, 216 347.012 C 216 353.680, 226.026 354.820, 232.013 348.833 C 234.787 346.059, 235 345.322, 235 338.495 C 235 328.055, 235.086 328, 251.559 328 L 264.975 328 267.473 331.957 C 268.847 334.133, 270.848 336.383, 271.920 336.957 C 272.992 337.531, 278.533 338, 284.234 338 C 290.963 338, 295.021 338.421, 295.800 339.200 C 296.631 340.031, 297 345.220, 297 356.089 C 297 369.746, 297.235 372.068, 298.812 374.016 C 301.002 376.720, 304.708 376.009, 305.859 372.664 C 306.269 371.474, 306.581 362.524, 306.552 352.775 L 306.500 335.050 303.732 332.275 C 301.063 329.601, 300.504 329.482, 288.314 329 L 275.665 328.500 273.756 325 C 270.523 319.070, 270.254 319, 250.732 319 L 232.846 319 229.923 321.923 M 283.750 343.080 C 282.212 343.976, 282 345.839, 282 358.478 C 282 370.217, 282.289 373.146, 283.571 374.429 C 285.524 376.381, 286.009 376.382, 288.777 374.443 C 290.893 372.962, 291 372.216, 291 359 C 291 345.784, 290.893 345.038, 288.777 343.557 C 286.193 341.746, 286.061 341.734, 283.750 343.080 M 314.200 353.200 C 312.517 354.883, 312.706 358.564, 314.571 360.429 C 316.779 362.636, 331.632 362.647, 334.777 360.443 C 337.476 358.553, 337.631 355.881, 335.171 353.655 C 332.909 351.607, 316.156 351.244, 314.200 353.200 M 51.370 391.250 C 51.701 392.488, 51.979 398.788, 51.986 405.250 C 51.998 415.022, 52.253 417, 53.500 417 C 54.762 417, 55 414.778, 55 403 C 55 389.410, 54.938 389, 52.883 389 C 51.176 389, 50.883 389.435, 51.370 391.250 M 223.223 411.557 C 221.097 413.046, 221 413.755, 221 427.866 C 221 438.786, 221.356 443.105, 222.371 444.493 C 223.681 446.285, 225.735 446.359, 268.121 446.141 C 311.612 445.918, 312.535 445.872, 314.250 443.846 C 315.725 442.104, 316 439.693, 316 428.524 C 316 416.629, 315.787 414.999, 313.927 412.635 L 311.855 410 268.650 410 C 231.165 410, 225.151 410.206, 223.223 411.557 M 230.890 421.110 C 229.071 422.929, 228.838 424.114, 229.196 429.730 C 229.512 434.698, 230.071 436.585, 231.555 437.691 C 233.188 438.908, 239.174 439.089, 268.831 438.820 C 309.636 438.450, 307 439.172, 307 428.366 C 307 418.572, 308.793 419, 267.777 419 C 233.731 419, 232.956 419.044, 230.890 421.110 M 357.582 426.316 C 355.338 427.957, 355.011 433.103, 356.998 435.497 C 359.161 438.104, 365.109 437.087, 366.948 433.796 C 368.342 431.301, 368.298 430.875, 366.381 428.296 C 364.001 425.095, 360.370 424.278, 357.582 426.316" stroke="none" fill="" fill-rule="evenodd"/>
</svg>