<svg xmlns="http://www.w3.org/2000/svg" width="512" height="512" viewBox="0 0 512 512" version="1.1">
	<path d="M 228.500 48.115 C 202.457 51.404, 182.015 57.442, 159.439 68.515 C 137.446 79.302, 121.512 90.710, 104.776 107.655 C 77.688 135.079, 59.900 166.235, 48.624 206.005 C 42.134 228.894, 41.495 233.861, 41.548 261 C 41.590 282.557, 41.867 286.761, 43.855 296 C 48.987 319.850, 61.430 349.417, 74.997 370 C 105.691 416.567, 152.404 449.470, 202.579 459.865 C 220.592 463.597, 231.468 464.456, 260 464.399 C 295.294 464.329, 310.240 461.949, 335.213 452.419 C 377.733 436.193, 409.668 410.751, 434.277 373.500 C 447.617 353.306, 461.223 319.871, 466.016 295.500 C 468.769 281.502, 469.700 257.424, 468.088 241.909 C 464.006 202.635, 446.948 159.652, 423.103 128.552 C 387.467 82.075, 336.291 53.050, 280.780 47.833 L 268.059 46.637 263.100 50.819 C 260.373 53.118, 257.747 55, 257.265 55 C 256.783 55, 254.839 53.840, 252.944 52.422 C 244.743 46.285, 244.013 46.156, 228.500 48.115 M 241 65.678 C 228.110 66.619, 210.028 69.402, 202.360 71.625 C 185.280 76.576, 162.641 86.700, 145.500 97.052 C 136.824 102.291, 124 112.515, 124 114.192 C 124 115.187, 125.828 114.990, 130.750 113.464 C 132.609 112.888, 133 113.146, 133 114.949 C 133 116.149, 133.532 118.114, 134.182 119.316 C 135.813 122.331, 136.133 126.300, 134.809 127.118 C 133.642 127.839, 134.394 131.022, 135.719 130.968 C 136.148 130.951, 137.347 130.295, 138.383 129.511 C 140.010 128.278, 140.128 127.548, 139.255 124.106 C 138.431 120.862, 138.560 119.607, 139.953 117.313 C 140.893 115.766, 141.979 113.233, 142.367 111.684 C 143.366 107.691, 146.181 108.498, 146.523 112.875 C 146.668 114.732, 147.343 116.594, 148.022 117.013 C 148.701 117.433, 148.950 118.272, 148.576 118.877 C 148.149 119.569, 148.472 119.756, 149.448 119.382 C 150.302 119.054, 151 118.384, 151 117.893 C 151 117.402, 151.914 117, 153.031 117 C 154.149 117, 155.308 116.360, 155.609 115.577 C 156.393 113.533, 158.136 113.114, 161 114.283 C 162.375 114.844, 164.287 115.206, 165.250 115.088 C 166.213 114.971, 167 115.443, 167 116.137 C 167 117.098, 167.278 117.122, 168.165 116.235 C 169.052 115.348, 169.667 115.479, 170.739 116.785 C 171.514 117.728, 171.851 117.918, 171.488 117.206 C 171.125 116.495, 171.372 115.257, 172.036 114.456 C 172.701 113.655, 172.852 112.993, 172.372 112.985 C 171.893 112.976, 172.162 112.550, 172.972 112.038 C 174.206 111.258, 174.126 110.988, 172.472 110.366 C 170.493 109.621, 168.091 107.135, 168.032 105.769 C 168.014 105.367, 169.083 104.766, 170.407 104.434 C 173.181 103.738, 177.361 105.607, 176.423 107.124 C 176.075 107.687, 176.797 107.552, 178.026 106.824 C 179.794 105.777, 180.356 105.762, 180.714 106.750 C 180.963 107.438, 182.077 108, 183.190 108 C 184.526 108, 185.029 108.482, 184.670 109.417 C 184.371 110.197, 184.801 111.094, 185.627 111.410 C 186.452 111.727, 186.847 112.439, 186.504 112.993 C 186.162 113.547, 186.584 114, 187.441 114 C 188.298 114, 189 114.702, 189 115.559 C 189 116.416, 189.422 116.857, 189.939 116.538 C 190.455 116.219, 191.295 116.706, 191.807 117.619 C 192.332 118.558, 193.250 118.963, 193.917 118.551 C 194.815 117.996, 194.796 117.459, 193.836 116.303 C 192.803 115.058, 192.885 114.557, 194.288 113.532 C 196.558 111.871, 196.451 111, 193.975 111 C 192.707 111, 191.576 110.014, 190.947 108.361 C 190.395 106.910, 189.665 106.002, 189.324 106.343 C 188.982 106.684, 187.883 106.018, 186.880 104.862 C 184.746 102.401, 185.734 99.537, 189.084 98.473 C 190.679 97.967, 191.031 97.260, 190.581 95.467 C 189.834 92.491, 190.789 91.929, 195.344 92.668 C 198.300 93.148, 199 93.695, 199 95.524 C 199 96.768, 199.726 98.065, 200.613 98.405 C 201.575 98.774, 202.034 99.761, 201.750 100.847 C 201.380 102.262, 201.747 102.582, 203.387 102.274 C 204.974 101.977, 205.832 102.641, 206.834 104.939 C 208.240 108.166, 210 109.034, 210 106.500 C 210 105.675, 209.584 105, 209.077 105 C 208.569 105, 208.827 103.650, 209.650 102 C 210.473 100.350, 211.564 99, 212.073 99 C 212.583 99, 213 98.501, 213 97.892 C 213 97.230, 212.060 97.019, 210.667 97.369 C 208.614 97.884, 208.333 97.597, 208.333 94.977 C 208.333 93.340, 208.763 92, 209.289 92 C 209.815 92, 209.627 91.239, 208.872 90.308 C 207.940 89.158, 207.901 88.857, 208.750 89.367 C 209.438 89.780, 210 89.716, 210 89.226 C 210 87.286, 208.670 87.181, 207.126 89 C 206.232 90.053, 204.259 91.209, 202.741 91.568 C 200.168 92.177, 200.044 92.063, 200.895 89.861 C 201.397 88.562, 202.301 87.613, 202.904 87.750 C 203.507 87.888, 204 86.740, 204 85.200 C 204 82.178, 205.578 80, 207.767 80 C 208.680 80, 208.924 80.666, 208.500 82 C 207.447 85.318, 208.787 84.250, 210.695 80.250 C 211.679 78.188, 212.488 76.243, 212.492 75.929 C 212.509 74.686, 216.041 71.907, 216.915 72.448 C 217.427 72.764, 218.142 74.368, 218.503 76.011 C 218.864 77.655, 219.553 79, 220.034 79 C 220.515 79, 222.095 80.186, 223.544 81.635 C 225.603 83.694, 225.886 84.457, 224.840 85.120 C 223.987 85.661, 223.920 85.975, 224.656 85.985 C 225.318 85.993, 225.589 86.855, 225.290 88 C 225.002 89.100, 224.369 90, 223.883 90 C 223.398 90, 223 90.900, 223 92 C 223 93.100, 223.450 94, 224 94 C 225.442 94, 225.233 96.748, 223.750 97.292 C 222.803 97.639, 222.780 98.048, 223.654 98.979 C 224.549 99.932, 225.188 99.406, 226.502 96.637 C 227.434 94.673, 228.490 93.104, 228.848 93.151 C 230.810 93.409, 231.971 92.858, 231.750 91.774 C 231.612 91.099, 232.547 90.388, 233.826 90.194 C 235.605 89.924, 236.095 90.272, 235.908 91.670 C 235.505 94.679, 238.077 98.803, 240.781 99.481 C 242.172 99.830, 243.578 99.720, 243.905 99.235 C 244.232 98.751, 245.287 98.064, 246.250 97.708 C 248.393 96.918, 248.546 94.424, 246.500 93.638 C 245.675 93.322, 245 92.179, 245 91.099 C 245 88.927, 247.813 87.607, 250.359 88.584 C 252.408 89.370, 252.474 88.331, 250.500 86.357 C 248.660 84.517, 248.528 79.391, 250.293 78.300 C 251.005 77.860, 252.202 75.588, 252.953 73.250 C 253.705 70.912, 254.709 69, 255.185 69 C 256.151 69, 258.109 73.573, 257.738 74.964 C 257.607 75.456, 258.383 76.517, 259.462 77.321 C 261.085 78.531, 261.205 79.048, 260.157 80.311 C 259.116 81.565, 259.179 82.001, 260.508 82.744 C 261.973 83.564, 261.978 83.773, 260.563 84.948 C 259.703 85.661, 259 86.891, 259 87.681 C 259 88.472, 258.550 88.840, 258 88.500 C 257.450 88.160, 257 88.314, 257 88.841 C 257 89.368, 258.545 89.800, 260.434 89.800 C 262.322 89.800, 264.347 90.097, 264.934 90.459 C 266.747 91.580, 266.109 94, 264 94 C 259.418 94, 264.369 98.435, 269.253 98.707 C 273.792 98.959, 275.294 96.816, 274.603 91.078 C 274.254 88.187, 274.527 87.012, 275.647 86.582 C 278.381 85.533, 279.962 85.935, 279.352 87.525 C 278.895 88.716, 279.448 88.998, 281.884 88.812 C 284.121 88.642, 285 88.071, 285 86.787 C 285 85.804, 285.436 85, 285.969 85 C 286.501 85, 286.712 84.412, 286.436 83.694 C 286.160 82.975, 287.031 81.111, 288.371 79.552 C 289.710 77.993, 291.064 75.431, 291.378 73.859 C 291.781 71.843, 292.547 71, 293.975 71 C 295.089 71, 296 71.450, 296 72 C 296 72.550, 297.001 74.001, 298.224 75.224 C 300.895 77.895, 301.299 79.671, 299.401 80.399 C 297.961 80.952, 297.406 84.012, 298.750 83.985 C 299.788 83.964, 302.688 82.034, 301.711 82.015 C 301.277 82.007, 301.835 81.020, 302.950 79.823 C 305.309 77.291, 305.699 77.485, 306.352 81.518 C 306.618 83.158, 306.926 84.725, 307.036 85 C 307.147 85.275, 307.184 85.838, 307.118 86.250 C 307.053 86.662, 307.675 87, 308.500 87 C 309.333 87, 310 87.889, 310 89 C 310 91.389, 309.726 91.427, 306.077 89.540 C 304.524 88.737, 302.972 88.362, 302.627 88.707 C 301.452 89.882, 301.996 92.785, 303.500 93.362 C 304.325 93.678, 305 94.674, 305 95.576 C 305 96.572, 304.449 97.003, 303.594 96.674 C 302.821 96.378, 301.401 97.005, 300.439 98.067 C 298.846 99.828, 298.837 100, 300.345 100 C 301.255 100, 302 100.627, 302 101.393 C 302 102.159, 302.712 103.059, 303.582 103.393 C 305.980 104.313, 306.274 104.155, 305.768 102.220 C 305.512 101.242, 305.909 99.874, 306.651 99.181 C 307.736 98.168, 308 98.168, 308 99.183 C 308 99.877, 308.701 99.444, 309.558 98.221 C 310.415 96.997, 310.867 95.594, 310.564 95.103 C 309.869 93.979, 312.784 92.796, 314.340 93.571 C 314.978 93.888, 314.712 93.503, 313.750 92.714 C 311.374 90.766, 311.551 90, 314.378 90 C 317.233 90, 319.262 92.153, 318.436 94.305 C 318.026 95.375, 319.118 96.712, 321.919 98.565 C 326.185 101.388, 327.900 105.087, 323.968 102.983 C 322.128 101.998, 321.995 102.130, 322.559 104.378 C 323.094 106.512, 322.895 106.785, 321.138 106.326 C 319.412 105.875, 319.126 106.224, 319.297 108.575 C 319.459 110.793, 318.992 111.486, 317 111.981 C 314.620 112.574, 314.594 112.657, 316.453 113.705 C 318.059 114.611, 318.184 115.074, 317.154 116.314 C 316.308 117.333, 316.243 118.032, 316.951 118.470 C 318.373 119.349, 320 118.222, 320 116.358 C 320 115.519, 320.558 115.019, 321.241 115.247 C 322.634 115.711, 325 113.712, 325 112.071 C 325 111.482, 325.436 111, 325.969 111 C 326.501 111, 326.694 110.366, 326.396 109.590 C 326.059 108.712, 326.731 107.916, 328.178 107.479 C 329.455 107.093, 331.959 106.103, 333.742 105.279 C 337.215 103.673, 340.459 104.202, 339.708 106.251 C 339.456 106.938, 338.710 107.376, 338.051 107.225 C 337.391 107.074, 337.149 107.431, 337.512 108.019 C 337.875 108.607, 337.448 110.193, 336.563 111.544 C 335.344 113.404, 335.270 114, 336.256 114 C 336.972 114, 338.207 114.900, 339 116 C 340.451 118.013, 342.548 118.642, 343.167 117.250 C 343.350 116.837, 344.978 115.462, 346.785 114.194 C 350.283 111.739, 354 111.962, 354 114.626 C 354 115.447, 354.437 115.848, 354.971 115.518 C 356.517 114.562, 362.230 117.958, 361.644 119.485 C 361.359 120.227, 361.823 121.102, 362.674 121.429 C 363.741 121.838, 364.050 121.573, 363.668 120.576 C 363.362 119.780, 363.650 118.950, 364.306 118.731 C 365.023 118.492, 365.500 116.300, 365.500 113.250 C 365.500 107.837, 366.551 105.478, 367.568 108.607 C 367.907 109.648, 369.316 113.139, 370.699 116.365 C 372.873 121.432, 373.042 122.554, 371.939 124.613 C 371.238 125.924, 370.852 127.110, 371.082 127.248 C 371.312 127.387, 372.667 128.524, 374.092 129.776 L 376.685 132.052 376.750 127.276 C 376.938 113.571, 378.836 111.349, 385.812 116.670 C 389.153 119.218, 389.215 119.376, 387.173 120.132 C 383.018 121.669, 387.939 125.761, 393.161 125.111 C 395.698 124.795, 396.528 127.049, 394.108 127.682 C 392.042 128.222, 392.047 128.268, 394.537 131.227 C 397.411 134.642, 396.529 137, 392.378 137 C 390.974 137, 390 137.590, 390 138.441 C 390 139.234, 389.531 140.172, 388.958 140.526 C 387.977 141.132, 379.578 138.811, 375.764 136.879 C 373.400 135.683, 373 135.764, 373 137.443 C 373 139.362, 369.045 146, 367.901 146 C 367.406 146, 367 146.375, 367 146.833 C 367 147.292, 368.350 147.667, 370 147.667 C 371.650 147.667, 373 147.292, 373 146.833 C 373 146.375, 373.904 145.096, 375.008 143.992 C 376.572 142.428, 377.846 142.108, 380.758 142.545 C 382.816 142.854, 385.400 143.196, 386.500 143.304 C 387.600 143.412, 388.836 144.021, 389.248 144.657 C 390.112 145.995, 394.256 145.223, 393.425 143.879 C 392.243 141.967, 396.336 141.696, 397.909 143.583 C 398.788 144.637, 401.193 146.760, 403.253 148.301 C 405.314 149.841, 407 151.482, 407 151.947 C 407 152.412, 405.200 152.700, 403 152.588 C 400.268 152.448, 399 152.798, 399 153.692 C 399 154.411, 399.450 155, 400 155 C 400.550 155, 401 155.600, 401 156.333 C 401 157.067, 401.675 157.667, 402.500 157.667 C 403.325 157.667, 404 157.363, 404 156.991 C 404 156.619, 405.641 156.581, 407.646 156.907 C 409.651 157.233, 411.226 157.838, 411.146 158.250 C 411.066 158.662, 411 159.405, 411 159.900 C 411 160.394, 408.773 161.600, 406.052 162.579 C 403.330 163.557, 401.306 164.687, 401.555 165.089 C 402.263 166.235, 400.992 168.789, 399.411 169.396 C 397.827 170.004, 393 168.129, 393 166.907 C 393 166.482, 392.100 165.849, 391 165.500 C 389.722 165.094, 389 163.987, 389 162.433 C 389 161.095, 388.498 160, 387.883 160 C 387.266 160, 386.996 160.878, 387.281 161.966 C 387.564 163.047, 387.504 163.894, 387.147 163.847 C 383.383 163.358, 382.747 166.648, 386.428 167.571 C 387.763 167.906, 389.096 168.807, 389.390 169.573 C 389.684 170.339, 390.558 170.723, 391.333 170.426 C 393.243 169.693, 394.334 172.892, 392.803 174.737 C 390.882 177.052, 390.613 181.086, 392.426 180.390 C 394.723 179.509, 395.810 184.967, 393.586 186.212 C 392.343 186.908, 392.173 187.503, 392.951 188.441 C 394.411 190.200, 399 189.188, 399 187.106 C 399 186.192, 399.689 184.461, 400.531 183.259 C 401.787 181.466, 402.505 181.241, 404.522 182.009 C 407.745 183.234, 410.474 182.276, 408.959 180.450 C 408.123 179.443, 408.843 178.157, 412.020 174.980 C 415.334 171.666, 416.663 170.950, 418.600 171.436 C 420.534 171.921, 420.910 172.509, 420.452 174.334 C 420.005 176.115, 420.446 176.882, 422.439 177.790 C 425.373 179.127, 425.838 180.985, 423.250 181.032 C 421.608 181.062, 421.611 181.148, 423.303 182.431 C 424.578 183.398, 424.737 183.921, 423.846 184.218 C 422.237 184.754, 425.204 187.941, 429.750 190.559 C 431.538 191.589, 433 192.732, 433 193.099 C 433 194.037, 429.202 194.924, 426.999 194.500 C 425.987 194.305, 424.912 194.788, 424.610 195.573 C 424.309 196.358, 423.422 197, 422.638 197 C 421.855 197, 420.965 197.649, 420.661 198.442 C 420.356 199.235, 419.296 199.849, 418.304 199.806 C 416.296 199.719, 410.501 201.839, 411.111 202.437 C 411.325 202.647, 413.525 202.939, 416 203.085 C 418.475 203.232, 421.063 203.778, 421.750 204.299 C 422.634 204.968, 423 204.734, 423 203.500 C 423 202.068, 423.267 201.977, 424.489 202.991 C 425.308 203.671, 425.724 204.637, 425.415 205.138 C 425.105 205.639, 425.222 205.985, 425.676 205.906 C 428.065 205.491, 428.858 206.290, 428.780 209.035 C 428.723 211.040, 429.595 213.012, 431.347 214.840 C 434.882 218.530, 434.700 219.128, 430.250 218.434 C 424.479 217.534, 422.906 217.747, 421.543 219.611 C 420.363 221.224, 420.218 221.213, 419.217 219.424 C 418.630 218.375, 417.796 217.871, 417.363 218.304 C 416.930 218.737, 417.152 220.014, 417.856 221.141 C 418.929 222.859, 418.871 223.485, 417.503 224.997 C 415.965 226.696, 416.078 226.871, 419.435 227.978 C 421.850 228.776, 423 229.765, 423 231.046 C 423 232.430, 422.531 232.761, 421.250 232.281 C 419.683 231.694, 419.652 231.812, 420.953 233.410 C 422.259 235.014, 422.209 235.169, 420.453 234.944 C 419.379 234.806, 417.653 235.058, 416.618 235.504 C 415.503 235.985, 413.988 235.849, 412.905 235.172 C 411.410 234.239, 411.179 234.302, 411.644 235.515 C 411.957 236.332, 411.668 237, 411 237 C 410.332 237, 410.045 237.674, 410.362 238.500 C 410.678 239.325, 410.501 240, 409.969 240 C 409.436 240, 409 240.675, 409 241.500 C 409 242.325, 409.450 243, 410 243 C 410.550 243, 411 243.852, 411 244.893 C 411 245.934, 411.675 247.045, 412.500 247.362 C 413.325 247.678, 414 247.501, 414 246.969 C 414 246.436, 415.350 246, 417 246 C 418.650 246, 420 245.550, 420 245 C 420 244.450, 419.550 244, 419 244 C 418.450 244, 418.112 243.439, 418.250 242.754 C 418.618 240.920, 421.221 239.148, 422.708 239.718 C 423.508 240.025, 424 239.424, 424 238.138 C 424 236.697, 424.462 236.240, 425.511 236.643 C 426.637 237.075, 426.848 236.767, 426.338 235.438 C 425.796 234.026, 426.023 233.795, 427.419 234.331 C 428.391 234.703, 430.269 235.280, 431.593 235.613 C 433.901 236.192, 435.067 239, 433 239 C 432.450 239, 432 239.844, 432 240.875 C 432 242.158, 432.947 242.939, 435 243.350 C 438.444 244.039, 438.973 245.933, 435.943 246.725 C 434.812 247.021, 434.098 247.813, 434.356 248.484 C 434.613 249.156, 433.964 250.443, 432.912 251.343 C 431.860 252.244, 431 253.660, 431 254.490 C 431 255.321, 430.367 256, 429.594 256 C 428.680 256, 428.370 256.700, 428.710 258 C 429.348 260.440, 428.146 260.514, 423.546 258.321 C 418.795 256.055, 417.897 257.399, 421.788 260.954 C 425.683 264.511, 428.956 265.689, 430.046 263.925 C 430.690 262.884, 431.638 262.875, 434.985 263.877 C 439.169 265.131, 439.960 267.185, 436.515 267.853 C 435.515 268.047, 433.780 269.059, 432.660 270.103 C 431.539 271.146, 430.258 272, 429.811 272 C 428.361 272, 428.956 275.769, 430.500 276.362 C 432.081 276.968, 432.625 281, 431.126 281 C 430.645 281, 428.436 280.359, 426.216 279.576 C 423.997 278.793, 421.956 278.377, 421.682 278.652 C 421.407 278.926, 420.886 278.217, 420.524 277.075 C 419.679 274.414, 418.016 274.345, 418.710 277 C 419.420 279.716, 417.586 279.538, 416.132 276.750 C 414.991 274.562, 414.973 274.573, 415.472 277.146 C 416.030 280.018, 414.141 281.518, 410.547 281.056 C 408.871 280.841, 408.780 281.030, 409.909 282.391 C 411.015 283.723, 410.961 284.078, 409.575 284.609 C 407.424 285.435, 404 282.318, 404 279.534 C 404 277.328, 401.888 274.615, 398.188 272.068 C 397.043 271.280, 396.335 270.268, 396.613 269.818 C 396.891 269.368, 396.388 269, 395.496 269 C 394.388 269, 393.973 268.287, 394.187 266.750 C 394.437 264.956, 393.993 264.477, 392 264.385 C 387.347 264.172, 384.855 261.981, 384.549 257.833 C 384.522 257.467, 384.197 256.863, 383.826 256.492 C 383.455 256.121, 384.728 254.287, 386.654 252.416 C 389.597 249.558, 390.479 249.186, 392.164 250.088 C 394.888 251.546, 395.706 250.438, 393.613 248.125 C 392.072 246.422, 392.056 246.087, 393.453 244.690 C 395.300 242.843, 395.532 241.332, 393.750 242.749 C 392.273 243.924, 389.177 243.577, 387.669 242.069 C 386.157 240.557, 385 240.743, 385 242.500 C 385 243.325, 384.550 244, 384 244 C 383.450 244, 383.014 244.787, 383.030 245.750 C 383.059 247.383, 383.131 247.379, 384.111 245.695 C 384.941 244.268, 385.460 244.137, 386.581 245.067 C 388.226 246.433, 388.549 250.457, 386.933 249.458 C 386.345 249.095, 385.619 249.743, 385.316 250.899 C 385.014 252.055, 384.477 253, 384.124 253 C 383.770 253, 382.881 253.960, 382.148 255.134 C 381.037 256.914, 381.038 257.415, 382.158 258.153 C 383.558 259.076, 383.454 259.202, 378.337 262.786 C 376.661 263.960, 376.720 264.029, 379.008 263.578 C 381.907 263.006, 384.554 264.295, 383.612 265.819 C 383.257 266.393, 383.397 267.127, 383.922 267.452 C 384.447 267.777, 385.303 267.281, 385.823 266.352 C 386.650 264.873, 387.159 264.823, 389.884 265.952 C 391.598 266.662, 393 267.559, 393 267.946 C 393 268.332, 394.788 270.415, 396.974 272.574 C 399.616 275.184, 400.767 277.087, 400.407 278.250 C 400.109 279.212, 400.346 280, 400.933 280 C 401.520 280, 402 280.675, 402 281.500 C 402 282.325, 401.212 283.010, 400.250 283.022 C 398.761 283.041, 398.832 283.302, 400.725 284.772 C 402.852 286.424, 403.504 288.429, 403.158 292.250 C 402.951 294.543, 400.945 294.507, 400.342 292.199 C 400.054 291.097, 398.118 289.881, 395.352 289.064 C 392.867 288.331, 390.599 287.118, 390.312 286.371 C 390.025 285.623, 389.388 285.260, 388.895 285.565 C 388.403 285.869, 387.993 285.529, 387.985 284.809 C 387.973 283.821, 387.747 283.852, 387.061 284.936 C 386.308 286.126, 385.883 286.147, 384.576 285.063 C 383.521 284.188, 383 284.126, 383 284.878 C 383 285.495, 382.394 286, 381.653 286 C 380.913 286, 378.636 287.623, 376.593 289.607 C 374.551 291.590, 372.650 292.983, 372.368 292.702 C 371.243 291.576, 371.218 278.451, 372.339 277.063 C 373.288 275.888, 373.165 275.751, 371.668 276.313 C 370.661 276.691, 369.397 277, 368.859 277 C 368.322 277, 368.202 277.518, 368.594 278.152 C 368.985 278.785, 368.532 279.869, 367.586 280.561 C 366.641 281.252, 365.841 282.196, 365.809 282.659 C 365.714 284.049, 362.288 288, 361.178 288 C 360.608 288, 359.389 287.246, 358.468 286.325 C 357.547 285.404, 355.827 284.542, 354.647 284.409 C 353.466 284.276, 352.148 284.129, 351.718 284.083 C 351.288 284.038, 350.575 283.026, 350.135 281.835 C 349.401 279.852, 348.708 279.687, 341.917 279.884 C 337.838 280.002, 330.675 281, 326 282.101 C 319.168 283.711, 315.636 283.980, 308 283.473 L 298.500 282.842 292.531 286.480 C 279.597 294.363, 272 302.582, 272 308.693 C 272 310.558, 273.833 319.212, 276.072 327.923 L 280.145 343.762 276.945 353.003 C 273.242 363.699, 273.212 371.169, 276.838 379.367 C 281.358 389.585, 291.444 396.737, 315.500 406.782 C 330.494 413.043, 333.237 413.765, 345 414.549 C 350.225 414.897, 357.335 415.860, 360.800 416.687 C 364.265 417.515, 368.179 417.921, 369.498 417.590 C 376.292 415.885, 401.984 390.854, 413 375.208 C 435.631 343.064, 449.248 304.856, 450.672 269.500 C 452.334 228.239, 439.891 185.239, 415.224 147 C 393.014 112.569, 353.532 84.039, 312.292 72.620 C 290.456 66.573, 264.011 63.998, 241 65.678 M 210.510 85.016 C 210.856 85.575, 211.557 85.774, 212.069 85.457 C 213.456 84.600, 213.198 84, 211.441 84 C 210.584 84, 210.165 84.457, 210.510 85.016 M 286 89.500 C 285.140 90.536, 285.102 91, 285.878 91 C 287.803 91, 287.104 93.160, 285 93.710 C 282.538 94.354, 282.542 94.871, 285.039 97.868 C 286.714 99.878, 287.250 100.037, 288.596 98.920 C 290.020 97.739, 290.024 97.491, 288.640 96.479 C 287.102 95.354, 286.959 91.493, 288.372 89.208 C 289.444 87.473, 287.481 87.715, 286 89.500 M 274 99.559 C 274 100.416, 274.450 100.840, 275 100.500 C 275.550 100.160, 276 99.459, 276 98.941 C 276 98.423, 275.550 98, 275 98 C 274.450 98, 274 98.702, 274 99.559 M 237 101 C 237 101.550, 237.477 102, 238.059 102 C 238.641 102, 238.840 101.550, 238.500 101 C 238.160 100.450, 237.684 100, 237.441 100 C 237.198 100, 237 100.450, 237 101 M 257.079 104.125 C 257.031 105.104, 255.799 105.990, 253.976 106.355 C 251.280 106.894, 251.017 107.260, 251.557 109.730 C 251.974 111.640, 251.865 112.079, 251.206 111.143 C 250.505 110.148, 250.059 110.095, 249.534 110.945 C 249.130 111.599, 249.944 113.146, 251.409 114.504 C 254.116 117.012, 254.623 118.497, 253.094 119.442 C 252.596 119.750, 252.449 121.014, 252.767 122.251 C 253.271 124.207, 253.140 124.331, 251.762 123.201 C 250.668 122.304, 249.973 122.235, 249.514 122.978 C 249.148 123.569, 248.142 123.929, 247.278 123.777 C 246.414 123.624, 245.536 123.987, 245.326 124.583 C 245.116 125.179, 245.519 125.698, 246.222 125.737 C 246.925 125.776, 249.975 126.093, 253 126.442 C 256.025 126.791, 259.288 127.087, 260.250 127.100 C 261.212 127.113, 262.029 127.659, 262.063 128.312 C 262.098 128.965, 262.551 128.440, 263.071 127.143 C 263.838 125.227, 264.498 124.908, 266.605 125.437 C 268.483 125.908, 269.077 125.731, 268.763 124.794 C 268.484 123.960, 266.406 123.476, 262.915 123.434 C 255.717 123.346, 255.725 123.350, 257.480 120.670 C 258.320 119.389, 258.764 118.097, 258.466 117.799 C 258.169 117.502, 258.464 116.075, 259.123 114.629 C 259.960 112.793, 261.102 111.990, 262.911 111.968 C 265.376 111.938, 265.409 111.868, 263.603 110.500 C 262.559 109.710, 261.304 109.312, 260.813 109.616 C 260.317 109.922, 260.209 109.017, 260.568 107.584 C 261.053 105.651, 260.832 105, 259.692 105 C 258.853 105, 257.940 104.438, 257.662 103.750 C 257.341 102.953, 257.129 103.089, 257.079 104.125 M 226.500 105 C 226.160 105.550, 226.359 106, 226.941 106 C 227.523 106, 228 105.550, 228 105 C 228 104.450, 227.802 104, 227.559 104 C 227.316 104, 226.840 104.450, 226.500 105 M 299.694 104.639 C 298.895 105.438, 299.798 107, 301.059 107 C 301.577 107, 302 106.325, 302 105.500 C 302 103.954, 300.820 103.513, 299.694 104.639 M 231.278 107.122 C 230.661 107.739, 230.382 108.831, 230.657 109.549 C 230.999 110.439, 230.532 110.690, 229.188 110.339 C 227.782 109.971, 226.719 110.637, 225.478 112.662 C 224.521 114.223, 222.230 116.775, 220.386 118.334 L 217.034 121.168 215.856 118.584 C 215.209 117.163, 214.085 116, 213.359 116 C 212.476 116, 212.157 114.988, 212.395 112.941 C 212.669 110.586, 212.416 110.010, 211.294 110.441 C 210.492 110.748, 209.622 111, 209.359 111 C 209.097 111, 209.179 111.480, 209.541 112.067 C 209.904 112.653, 209.368 113.741, 208.352 114.485 C 206.693 115.697, 207.016 117.500, 208.892 117.500 C 209.769 117.500, 216 122.659, 216 123.385 C 216 123.667, 214.554 125.250, 212.786 126.902 C 211.019 128.554, 209.912 130.245, 210.327 130.660 C 211.072 131.405, 216 126.413, 216 124.912 C 216 123.468, 220.085 122.826, 221.548 124.040 C 222.755 125.041, 223 124.802, 223 122.622 C 223 121.180, 223.450 120, 224 120 C 224.550 120, 225 119.073, 225 117.941 C 225 116.657, 225.428 116.147, 226.137 116.585 C 226.770 116.976, 228.046 116.265, 229.015 114.981 L 230.755 112.673 231.913 114.837 C 233.354 117.529, 235 117.643, 235 115.050 C 235 113.977, 235.785 112.660, 236.744 112.124 C 238.352 111.224, 238.299 110.947, 236.069 108.574 C 233.350 105.679, 232.867 105.533, 231.278 107.122 M 278.355 107.517 C 278.042 108.333, 277.186 109, 276.452 109 C 274.079 109, 273.918 110.793, 275.964 114.435 C 277.065 116.396, 277.497 118, 276.924 118 C 276.351 118, 276.160 118.450, 276.500 119 C 277.693 120.930, 279 119.972, 279 117.167 C 279 115.608, 279.269 114.064, 279.598 113.736 C 280.571 112.762, 283 114.099, 283 115.607 C 283 116.373, 283.689 117, 284.531 117 C 285.374 117, 286.358 117.787, 286.719 118.750 C 287.081 119.713, 288.035 120.994, 288.841 121.598 C 289.646 122.202, 289.974 123.233, 289.569 123.888 C 289.048 124.731, 289.517 124.914, 291.166 124.513 C 293.032 124.060, 293.977 124.654, 295.879 127.473 C 297.187 129.413, 298.680 131, 299.196 131 C 300.236 131, 299.162 126.668, 298.010 126.214 C 295.625 125.274, 293.754 123.082, 294.246 121.802 C 294.560 120.984, 296.509 119.512, 298.578 118.530 C 302.100 116.859, 302.419 116.852, 303.574 118.432 C 304.415 119.582, 305.029 119.763, 305.500 119 C 305.970 118.239, 306.593 118.429, 307.444 119.593 C 308.224 120.659, 309.190 121.001, 310.003 120.498 C 310.837 119.983, 311.066 120.084, 310.638 120.776 C 309.909 121.956, 311.757 123.576, 312.727 122.606 C 313.492 121.841, 310.038 118, 308.585 118 C 307.187 118, 302 113.241, 302 111.960 C 302 111.432, 301.339 111, 300.531 111 C 299.637 111, 299.288 111.586, 299.638 112.500 C 299.976 113.379, 299.652 114.001, 298.857 114.003 C 298.111 114.004, 296.600 115.353, 295.500 117 C 294.400 118.647, 293.239 119.996, 292.921 119.997 C 292.014 120.002, 282 109.094, 282 108.101 C 282 106.483, 278.940 105.992, 278.355 107.517 M 257.537 108.940 C 257.130 109.598, 256.205 109.909, 255.482 109.631 C 253.720 108.955, 252.584 112.119, 254.216 113.155 C 255.902 114.225, 256.172 114.185, 258.341 112.542 C 259.699 111.512, 259.932 110.701, 259.229 109.445 C 258.541 108.215, 258.072 108.075, 257.537 108.940 M 113.294 123.536 C 100.988 136.117, 92.354 148.749, 82.563 168.500 C 69.656 194.536, 61.878 219.670, 59.044 244.500 C 52.800 299.197, 79.799 365.055, 124.597 404.401 C 129.494 408.702, 134.625 412.657, 136 413.191 C 137.459 413.757, 141.206 413.847, 145 413.406 C 148.575 412.991, 158.925 412.617, 168 412.575 L 184.500 412.500 192 409.133 C 196.125 407.282, 203.968 404.025, 209.428 401.896 C 221.107 397.343, 226.028 394.153, 230.588 388.181 C 235.741 381.432, 238.247 373.819, 238.383 364.500 C 238.483 357.651, 238.093 355.637, 235.668 350.500 C 234.111 347.200, 232.840 343.150, 232.843 341.500 C 232.846 339.850, 234.486 332.875, 236.488 326 C 242.758 304.462, 242.486 302.007, 233.136 295.709 C 212.173 281.588, 212.486 281.712, 201.628 283.236 C 195.121 284.149, 192.958 284.007, 184.830 282.135 C 179.698 280.953, 172.205 279.989, 168.177 279.993 C 161.739 279.999, 160.894 279.788, 161.189 278.250 C 161.373 277.288, 162.998 276.022, 164.798 275.438 C 167.925 274.423, 167.991 274.301, 166.250 272.726 C 162.763 269.571, 157.190 267.830, 154.727 269.127 C 152.318 270.395, 151.031 271.918, 151.031 273.500 C 151.031 274.050, 151.408 273.904, 151.870 273.176 C 152.561 272.086, 152.957 272.100, 154.114 273.256 C 154.886 274.029, 156.077 274.474, 156.760 274.247 C 158.349 273.717, 159.969 277.997, 158.933 279.988 C 158.500 280.819, 157.884 282.334, 157.565 283.354 C 157.210 284.486, 156.403 284.985, 155.494 284.636 C 154.675 284.322, 152.469 284.971, 150.591 286.079 L 147.178 288.092 145.589 285.824 C 144.715 284.576, 144 283.175, 144 282.711 C 144 282.246, 142.473 280.248, 140.608 278.271 L 137.215 274.675 137.757 277.587 C 138.054 279.189, 138.727 280.780, 139.252 281.123 C 139.845 281.510, 139.789 282.526, 139.103 283.807 C 138.496 284.941, 138 287.248, 138 288.934 C 138 292.849, 137.186 292.791, 133.226 288.592 C 130.857 286.081, 129.442 285.333, 127.849 285.750 C 126.463 286.112, 125.923 285.933, 126.345 285.251 C 126.759 284.581, 126.262 284.380, 125.001 284.710 C 123.901 284.998, 123 285.631, 123 286.117 C 123 287.470, 120.234 287.166, 119.662 285.750 C 119.333 284.934, 119.131 285.048, 119.079 286.081 C 119.036 286.951, 117.763 288.280, 116.250 289.035 C 114.737 289.791, 112.482 291.301, 111.237 292.391 C 108.113 295.128, 106.740 293.477, 107.611 288.030 C 108.087 285.053, 108.866 283.586, 110.149 283.251 C 112.622 282.604, 112.516 281, 110 281 C 107.397 281, 107.462 278.954, 110.173 275.507 L 112.346 272.744 110.198 273.894 C 108.301 274.909, 107.975 274.749, 107.416 272.522 C 107.068 271.135, 106.329 270, 105.775 270 C 105.191 270, 105.058 270.946, 105.460 272.250 C 106.501 275.626, 106.776 280, 105.948 280 C 105.546 280, 104.934 281.125, 104.589 282.500 C 104.244 283.875, 103.365 285, 102.636 285 C 100.512 285, 97.686 281.260, 98.402 279.396 C 98.945 277.979, 98.805 277.917, 97.500 279 C 96.203 280.076, 96.053 280.026, 96.566 278.689 C 97.399 276.517, 96.039 274.318, 94.951 276.079 C 94.420 276.938, 93.692 277.058, 92.779 276.436 C 92.024 275.921, 92.278 276.299, 93.345 277.275 C 94.411 278.251, 95.028 279.305, 94.717 279.616 C 93.872 280.461, 90 279.020, 90 277.861 C 90 277.309, 89.312 277.545, 88.471 278.386 C 87.630 279.227, 86.280 279.661, 85.471 279.351 C 84.662 279.040, 84 279.311, 84 279.952 C 84 280.593, 83.530 280.828, 82.956 280.473 C 82.382 280.118, 81.257 280.372, 80.456 281.036 C 78.496 282.663, 78.497 280.447, 80.460 275.749 C 82.039 271.972, 81.699 271, 78.802 271 C 77.776 271, 76.678 270.325, 76.362 269.500 C 76.045 268.675, 74.709 268, 73.393 268 C 70.424 268, 70.189 265.392, 73.075 264.476 C 74.217 264.114, 75.395 264.062, 75.694 264.361 C 75.993 264.660, 76.942 264.201, 77.801 263.341 C 79.219 261.924, 79.474 261.928, 80.543 263.389 C 81.828 265.146, 86 265.614, 86 264 C 86 263.450, 86.338 263.105, 86.750 263.234 C 87.647 263.513, 93.300 257.966, 92.714 257.381 C 92.490 257.157, 90.617 257.680, 88.551 258.543 C 84.185 260.367, 80.781 260.139, 80.446 258 C 79.894 254.483, 79.404 253.429, 77.750 252.193 C 76.787 251.475, 76 249.963, 76 248.835 C 76 247.146, 75.558 246.894, 73.500 247.411 C 70.195 248.240, 70.316 246.678, 73.730 244.442 C 75.341 243.386, 75.955 242.485, 75.230 242.243 C 73.571 241.690, 73.667 239.342, 75.376 238.686 C 76.132 238.396, 78 238.806, 79.527 239.598 C 81.054 240.391, 83.059 240.799, 83.984 240.505 C 84.943 240.201, 86.447 240.836, 87.487 241.986 C 89.210 243.889, 89.213 244, 87.544 244 C 86.053 244, 86.139 244.292, 88.098 245.878 C 89.927 247.359, 90.796 247.520, 92.209 246.638 C 93.194 246.022, 94 244.952, 94 244.259 C 94 242.670, 95.243 242.643, 96.800 244.200 C 97.467 244.867, 98 244.956, 98 244.400 C 98 243.850, 97.438 242.833, 96.750 242.141 C 95.748 241.131, 95.847 241.014, 97.250 241.548 C 98.213 241.914, 99.034 241.828, 99.077 241.357 C 99.119 240.886, 99.304 239.713, 99.488 238.750 C 99.863 236.794, 98.927 236.473, 97.374 238.026 C 96.673 238.727, 95.458 238.227, 93.536 236.446 C 91.866 234.898, 89.982 234.033, 88.898 234.316 C 86.671 234.899, 84.749 232.819, 85.560 230.704 C 86.381 228.564, 89.168 227.661, 90.155 229.216 C 90.603 229.922, 90.976 230.147, 90.985 229.715 C 91.019 227.937, 95 231.228, 95 233.035 C 95 236.079, 96.735 235.360, 98.534 231.570 C 99.548 229.432, 101.282 227.749, 103.134 227.103 C 105.683 226.215, 105.957 225.789, 105.061 224.114 C 104.294 222.681, 104.346 222.028, 105.258 221.660 C 105.990 221.364, 105.782 221.126, 104.750 221.079 C 103.787 221.036, 103 221.625, 103 222.389 C 103 223.153, 102.165 224.809, 101.145 226.070 L 99.289 228.361 97.453 226.217 C 96.087 224.621, 95.286 224.348, 94.322 225.148 C 93.609 225.740, 92.232 225.916, 91.263 225.540 C 89.585 224.890, 89.584 224.795, 91.250 223.568 C 93.333 222.035, 93.561 220.847, 91.631 221.588 C 90.815 221.901, 90.042 221.267, 89.714 220.016 C 89.211 218.092, 88.683 217.970, 83.346 218.546 C 80.145 218.892, 77.183 219.387, 76.763 219.646 C 75.152 220.642, 76.098 216.691, 78.072 214.182 C 79.287 212.637, 79.700 211.400, 79.072 211.191 C 77.388 210.629, 77.813 208.479, 80 206.500 C 81.100 205.505, 82 204.085, 82 203.345 C 82 201.747, 84.675 201.525, 85.193 203.080 C 85.442 203.827, 86.416 203.768, 88.348 202.887 C 90.568 201.876, 91.301 201.869, 91.910 202.854 C 92.496 203.802, 92.988 203.719, 94 202.500 C 95.031 201.257, 95.496 201.185, 96.107 202.174 C 96.538 202.871, 97.194 203.139, 97.565 202.769 C 97.935 202.398, 97.546 201.403, 96.699 200.557 C 95.549 199.406, 95.047 199.331, 94.710 200.259 C 94.094 201.955, 88.500 198.985, 88.500 196.962 C 88.500 196.022, 87.429 195.472, 85.500 195.421 C 81.203 195.309, 77.827 194.021, 78.275 192.665 C 78.487 192.024, 79.974 190.825, 81.580 190 C 83.186 189.175, 84.775 188.125, 85.111 187.666 C 85.447 187.208, 86.065 187.658, 86.484 188.666 C 87.136 190.235, 87.369 190.073, 88.090 187.550 C 89.036 184.243, 88.382 182.782, 86.961 185.029 C 86.331 186.025, 86.026 186.097, 86.015 185.250 C 86.007 184.563, 85.325 184, 84.500 184 C 83.675 184, 83 183.325, 83 182.500 C 83 181.675, 83.695 181, 84.544 181 C 85.393 181, 85.955 180.393, 85.794 179.652 C 85.483 178.223, 91.038 173, 92.869 173 C 93.464 173, 94.839 174.951, 95.925 177.336 C 97.683 181.194, 98.288 181.687, 101.411 181.804 C 103.342 181.877, 105.191 181.501, 105.520 180.968 C 106.896 178.741, 108.857 180.196, 109.485 183.911 C 110.146 187.823, 113.380 191.953, 114.727 190.606 C 115.120 190.213, 114.854 189.528, 114.136 189.084 C 112.701 188.197, 112.708 187.414, 114.175 184.672 C 114.714 183.667, 115.793 183.091, 116.577 183.391 C 118.286 184.047, 118.470 181.870, 116.842 180.242 C 115.966 179.366, 116.026 178.671, 117.092 177.381 C 117.867 176.444, 118.500 174.737, 118.500 173.588 C 118.500 172.383, 119.060 171.616, 119.825 171.775 C 120.775 171.972, 120.947 171.407, 120.431 169.783 C 119.766 167.686, 119.849 167.628, 121.543 169.008 C 123.199 170.357, 123.312 170.332, 122.719 168.750 C 122.323 167.694, 122.546 166.968, 123.281 166.919 C 123.952 166.874, 125.769 166.745, 127.320 166.633 C 128.977 166.512, 130.511 167.061, 131.040 167.964 C 132.010 169.620, 132.045 169.578, 132.409 166.348 C 132.571 164.912, 132.210 164.366, 131.326 164.705 C 130.597 164.985, 130 164.689, 130 164.048 C 130 163.407, 129.550 163.160, 129 163.500 C 128.450 163.840, 128 163.390, 128 162.500 C 128 161.610, 127.550 161.160, 127 161.500 C 126.450 161.840, 126 161.641, 126 161.059 C 126 158.902, 123.195 160.087, 122.589 162.500 C 122.244 163.875, 121.295 165, 120.481 165 C 119.666 165, 118.211 165.789, 117.246 166.754 C 115.504 168.496, 108 169.836, 108 168.405 C 108 167.994, 108.745 166.835, 109.655 165.829 C 111.220 164.099, 111.161 164, 108.561 164 C 106.654 164, 105.653 163.388, 105.290 162 C 105.002 160.900, 104.144 160, 103.383 160 C 102.623 160, 102 159.100, 102 158 C 102 156.667, 102.667 156, 104 156 C 105.100 156, 106 156.505, 106 157.122 C 106 157.933, 106.390 157.921, 107.403 157.081 C 108.480 156.187, 108.905 156.214, 109.233 157.199 C 109.565 158.195, 109.997 158.146, 111.161 156.982 C 112.722 155.421, 112.516 152.563, 110.915 153.553 C 110.412 153.864, 110 153.586, 110 152.937 C 110 152.048, 109.659 152.038, 108.627 152.895 C 107.042 154.210, 104 153.354, 104 151.593 C 104 149.845, 106.138 148, 108.165 148 C 109.135 148, 110.409 147.105, 110.994 146.010 C 112.108 143.930, 117.815 140.482, 118.693 141.360 C 119.528 142.195, 117.989 144, 116.441 144 C 115.648 144, 115 144.472, 115 145.050 C 115 145.730, 115.579 145.776, 116.642 145.180 C 117.545 144.675, 119.119 144.480, 120.140 144.747 C 121.161 145.014, 123.212 144.436, 124.697 143.463 C 126.182 142.490, 129.108 141.597, 131.198 141.479 C 134.260 141.307, 135 141.612, 135 143.049 C 135 144.030, 135.563 145.022, 136.250 145.252 C 136.966 145.491, 137.500 147.343, 137.500 149.585 C 137.500 152.184, 137.920 153.416, 138.750 153.250 C 139.438 153.113, 140 153.450, 140 154 C 140 154.550, 140.938 155, 142.083 155 C 144.836 155, 144.020 152.704, 141.193 152.496 C 139.988 152.407, 138.679 152.013, 138.286 151.619 C 137.392 150.725, 139.321 147.544, 140.859 147.375 C 141.487 147.306, 142.295 147.194, 142.655 147.125 C 143.015 147.056, 142.603 146.213, 141.740 145.250 C 140.876 144.287, 139.855 141.808, 139.471 139.739 C 138.648 135.303, 137.507 134.277, 136.124 136.729 C 135.357 138.087, 134.848 138.226, 133.938 137.326 C 133.029 136.426, 131.962 136.527, 129.376 137.761 C 127.519 138.646, 126 139.737, 126 140.185 C 126 141.796, 121.944 140.958, 120.268 139 C 119.326 137.900, 117.804 137, 116.885 137 C 114.531 137, 113.531 133.816, 115.446 132.416 C 117.681 130.782, 117.400 128, 115 128 C 113.889 128, 113 127.333, 113 126.500 C 113 125.129, 115.975 124.435, 119.750 124.925 C 120.438 125.015, 121.007 124.280, 121.015 123.294 C 121.028 121.770, 121.176 121.726, 122 123 C 122.533 123.825, 122.976 123.990, 122.985 123.367 C 122.993 122.743, 123.900 121.998, 125 121.710 C 127.084 121.165, 127.880 118.812, 125.832 119.250 C 125.189 119.388, 124.084 118.385, 123.376 117.023 L 122.089 114.545 113.294 123.536 M 173 116.059 C 173 116.641, 173.450 116.840, 174 116.500 C 174.550 116.160, 175 115.684, 175 115.441 C 175 115.198, 174.550 115, 174 115 C 173.450 115, 173 115.477, 173 116.059 M 179.452 118.750 C 179.986 120.153, 179.869 120.252, 178.859 119.250 C 176.974 117.379, 176.402 117.716, 176.454 120.667 C 176.479 122.134, 177.175 123.557, 178 123.829 C 179.294 124.257, 179.309 124.094, 178.109 122.640 C 176.896 121.171, 176.925 121.034, 178.333 121.574 C 180.192 122.288, 183.436 119.514, 182.505 118.008 C 181.380 116.187, 178.723 116.833, 179.452 118.750 M 204.244 117.664 C 202.668 118.300, 203.626 120, 205.559 120 C 206.352 120, 207 119.325, 207 118.500 C 207 116.958, 206.427 116.784, 204.244 117.664 M 329.526 117.958 C 329.230 118.437, 329.553 119.093, 330.244 119.415 C 331.150 119.837, 331.182 120.152, 330.356 120.548 C 328.814 121.287, 329.930 125.241, 331.510 124.635 C 332.978 124.071, 335 125.847, 335 127.700 C 335 128.415, 334.325 129, 333.500 129 C 332.675 129, 332 129.460, 332 130.021 C 332 130.583, 330.875 131.555, 329.500 132.182 C 328.125 132.808, 327 133.741, 327 134.254 C 327 135.530, 336.794 134.127, 340.250 132.357 C 343.332 130.779, 343.952 128, 341.222 128 C 340.244 128, 338.674 127.100, 337.732 126 C 336.790 124.900, 336.492 124, 337.069 124 C 337.646 124, 337.852 123.570, 337.527 123.044 C 337.202 122.518, 336.197 122.371, 335.294 122.717 C 334.030 123.202, 333.810 122.937, 334.338 121.562 C 334.863 120.194, 334.644 119.923, 333.400 120.400 C 332.265 120.835, 331.942 120.593, 332.326 119.594 C 332.926 118.030, 330.395 116.551, 329.526 117.958 M 349.412 117.750 C 349.800 118.438, 349.694 119, 349.176 119 C 347.680 119, 346.938 123.341, 348.288 124.199 C 349.122 124.729, 348.954 124.974, 347.750 124.985 C 346.788 124.993, 346 125.450, 346 126 C 346 126.550, 346.568 127, 347.263 127 C 347.957 127, 348.970 127.982, 349.513 129.183 C 350.129 130.547, 351.624 131.511, 353.495 131.750 C 355.143 131.961, 357.294 132.861, 358.275 133.749 C 359.952 135.266, 360.046 135.185, 359.834 132.403 C 359.710 130.775, 359.929 128.924, 360.320 128.290 C 360.712 127.657, 360.506 126.813, 359.862 126.415 C 359.128 125.961, 358.959 126.125, 359.409 126.853 C 360.258 128.227, 357.108 129.718, 356.149 128.396 C 355.792 127.903, 354.395 127.500, 353.045 127.500 C 350.223 127.500, 348.690 123.739, 350.250 120.643 C 350.886 119.380, 350.789 118.420, 349.946 117.643 C 349.006 116.776, 348.877 116.802, 349.412 117.750 M 383.813 118.683 C 384.534 118.972, 385.397 118.936, 385.729 118.604 C 386.061 118.272, 385.471 118.036, 384.417 118.079 C 383.252 118.127, 383.015 118.364, 383.813 118.683 M 194.583 119.866 C 194.152 120.563, 194.070 121.403, 194.400 121.733 C 195.295 122.628, 196.271 121.312, 195.787 119.862 C 195.449 118.846, 195.213 118.846, 194.583 119.866 M 200.679 119.711 C 200.378 120.197, 200.496 121.185, 200.941 121.905 C 201.556 122.899, 201.927 122.927, 202.488 122.020 C 202.894 121.363, 202.776 120.376, 202.226 119.826 C 201.666 119.266, 200.985 119.216, 200.679 119.711 M 315.500 121 C 315.840 121.550, 316.316 122, 316.559 122 C 316.802 122, 317 121.550, 317 121 C 317 120.450, 316.523 120, 315.941 120 C 315.359 120, 315.160 120.450, 315.500 121 M 234.568 121.765 C 234.332 122.002, 234.354 122.760, 234.619 123.450 C 235.201 124.965, 240.244 124.231, 239.735 122.704 C 239.388 121.665, 235.394 120.939, 234.568 121.765 M 162.480 122.776 C 161.918 123.174, 160.916 124.737, 160.251 126.250 C 159.434 128.109, 158.307 128.990, 156.771 128.968 C 154.204 128.932, 150.691 126.642, 151.682 125.651 C 152.040 125.293, 151.808 125, 151.167 125 C 149.694 125, 149.690 126.226, 151.155 129.440 C 152.112 131.541, 152.815 131.885, 155.269 131.453 C 157.384 131.080, 158.606 131.441, 159.549 132.716 C 160.757 134.348, 161.008 134.172, 162.491 130.648 C 163.754 127.646, 164.541 126.908, 166.056 127.304 C 168.587 127.966, 168.595 126.324, 166.064 125.520 C 165 125.182, 163.987 124.264, 163.814 123.479 C 163.641 122.695, 163.041 122.378, 162.480 122.776 M 242 123 C 241.207 123.490, 240.890 124.223, 241.296 124.629 C 241.701 125.035, 242.558 124.842, 243.200 124.200 C 244.711 122.689, 243.868 121.846, 242 123 M 270.597 122.844 C 270.251 123.404, 270.455 124.163, 271.050 124.531 C 272.588 125.481, 273.580 124.180, 272.296 122.896 C 271.578 122.178, 271.019 122.161, 270.597 122.844 M 275.393 123.582 C 275.727 124.452, 276 125.352, 276 125.582 C 276 125.812, 276.408 126, 276.906 126 C 277.405 126, 277.577 125.100, 277.290 124 C 277.002 122.900, 276.321 122, 275.776 122 C 275.232 122, 275.059 122.712, 275.393 123.582 M 361 124 C 361 124.550, 361.477 125, 362.059 125 C 362.641 125, 362.840 124.550, 362.500 124 C 362.160 123.450, 361.684 123, 361.441 123 C 361.198 123, 361 123.450, 361 124 M 174.500 125.094 C 173.950 125.637, 172.629 126.681, 171.564 127.414 C 169.850 128.593, 170.079 128.672, 173.564 128.106 C 175.966 127.715, 177.500 126.921, 177.500 126.066 C 177.500 124.322, 175.831 123.781, 174.500 125.094 M 174 131.188 L 171.500 132.140 174 133.535 C 175.375 134.302, 177.287 134.945, 178.250 134.965 C 179.213 134.984, 180 135.388, 180 135.861 C 180 136.935, 184.831 136.083, 185.575 134.879 C 186.052 134.108, 183.516 132.680, 180.500 132.021 C 179.950 131.901, 178.825 131.450, 178 131.020 C 177.175 130.589, 175.375 130.665, 174 131.188 M 249.500 131 C 249.840 131.550, 250.316 132, 250.559 132 C 250.802 132, 251 131.550, 251 131 C 251 130.450, 250.523 130, 249.941 130 C 249.359 130, 249.160 130.450, 249.500 131 M 231.556 131.910 C 230.867 133.025, 231.918 136, 233.001 136 C 233.434 136, 233.724 134.875, 233.644 133.501 C 233.498 130.962, 232.576 130.260, 231.556 131.910 M 279 131.882 C 279 132.432, 279.450 133.160, 280 133.500 C 280.550 133.840, 281 133.668, 281 133.118 C 281 132.568, 280.550 131.840, 280 131.500 C 279.450 131.160, 279 131.332, 279 131.882 M 299.015 132.750 C 299.043 134.119, 300.882 136.452, 301.469 135.864 C 302.257 135.076, 301.002 132, 299.893 132 C 299.402 132, 299.007 132.338, 299.015 132.750 M 313.638 133.500 C 313.955 134.325, 314.841 135, 315.607 135 C 316.373 135, 317 135.394, 317 135.875 C 317 136.356, 318.287 137.007, 319.861 137.322 C 324.640 138.278, 327.822 147.321, 324.536 150.607 C 323.730 151.413, 322.818 152.006, 322.507 151.927 C 320.750 151.475, 318 153.054, 318 154.513 C 318 155.740, 318.488 156.014, 319.750 155.495 C 322.249 154.469, 326.233 154.316, 328.098 155.173 C 328.978 155.577, 330.952 155.573, 332.485 155.162 C 335.121 154.458, 335.180 154.322, 333.556 152.699 C 332.612 151.754, 331.422 151.239, 330.912 151.555 C 330.402 151.870, 330.541 150.861, 331.221 149.314 C 331.901 147.766, 333.030 146.140, 333.729 145.700 C 335.514 144.577, 335.312 143, 333.383 143 C 332.259 143, 331.926 142.391, 332.290 140.999 C 332.578 139.898, 332.435 139.231, 331.973 139.517 C 330.823 140.227, 323 137.015, 323 135.832 C 323 135.310, 322.660 135.092, 322.244 135.349 C 321.829 135.606, 319.723 134.958, 317.566 133.908 C 312.852 131.615, 312.918 131.622, 313.638 133.500 M 134 133.941 C 134 134.459, 134.450 135.160, 135 135.500 C 135.550 135.840, 136 135.416, 136 134.559 C 136 133.702, 135.550 133, 135 133 C 134.450 133, 134 133.423, 134 133.941 M 195.166 134.134 C 193.116 134.893, 192.137 136.921, 193.750 137.069 C 194.162 137.107, 195.730 137.300, 197.234 137.499 C 200.588 137.942, 201.225 137.013, 199.008 134.916 C 197.856 133.828, 196.656 133.583, 195.166 134.134 M 210.752 133.919 C 210.891 134.149, 210.299 135.117, 209.437 136.070 C 208.380 137.238, 208.222 138.019, 208.951 138.470 C 209.546 138.837, 209.767 139.670, 209.442 140.319 C 209.117 140.969, 209.497 140.713, 210.286 139.750 C 211.075 138.787, 212.233 138, 212.860 138 C 214.459 138, 214.282 137.192, 212.250 135.208 C 211.287 134.269, 210.613 133.688, 210.752 133.919 M 262.557 134.907 C 262.263 135.384, 260.420 136.074, 258.461 136.441 C 255.726 136.954, 255.019 137.503, 255.414 138.805 C 256.749 143.214, 258.062 154.829, 257.540 157.624 C 257.219 159.342, 255.363 164.426, 253.415 168.921 C 249.896 177.041, 249.877 177.162, 250.549 187.297 C 251.140 196.214, 250.944 198.421, 248.998 204.805 C 247.569 209.496, 246.995 213.253, 247.396 215.305 C 248.323 220.049, 255.027 237, 255.976 237 C 256.428 237, 258.868 232.991, 261.399 228.091 C 267.207 216.846, 267.341 213.286, 262.480 199.490 C 259.009 189.638, 258.969 189.341, 259.594 178 C 260.178 167.420, 260.539 165.829, 264.114 158.112 C 268.445 148.761, 268.628 148, 266.535 148 C 264.537 148, 262.747 144.374, 263.529 141.910 C 263.971 140.517, 264.528 140.192, 265.334 140.859 C 266.171 141.551, 266.528 141.042, 266.599 139.058 C 266.698 136.303, 263.637 133.160, 262.557 134.907 M 276 135 C 275.175 135.533, 274.950 135.969, 275.500 135.969 C 276.050 135.969, 277.175 135.533, 278 135 C 278.825 134.467, 279.050 134.031, 278.500 134.031 C 277.950 134.031, 276.825 134.467, 276 135 M 350.229 135.188 C 350.447 135.841, 351.160 136.553, 351.813 136.771 C 352.544 137.015, 352.767 136.557, 352.394 135.584 C 351.696 133.766, 349.629 133.388, 350.229 135.188 M 377 135.059 C 377 135.641, 377.450 135.840, 378 135.500 C 378.550 135.160, 379 134.684, 379 134.441 C 379 134.198, 378.550 134, 378 134 C 377.450 134, 377 134.477, 377 135.059 M 243.459 136.067 C 243.096 136.653, 243.054 137.387, 243.365 137.698 C 243.675 138.009, 243.443 139.172, 242.848 140.283 C 241.961 141.941, 242.040 142.199, 243.285 141.721 C 244.215 141.364, 244.977 141.804, 245.252 142.856 C 245.959 145.559, 244.249 149, 242.199 149 C 241.173 149, 240.087 149.247, 239.786 149.548 C 239.247 150.087, 244.332 164.665, 245.448 165.782 C 246.199 166.532, 248.459 163.516, 251.031 158.333 C 252.821 154.725, 253.004 153.126, 252.398 146.431 C 251.899 140.930, 251.163 138.163, 249.848 136.848 C 247.811 134.811, 244.486 134.404, 243.459 136.067 M 311.250 135.718 C 309.277 136.426, 309.794 138, 312 138 C 313.100 138, 314 137.577, 314 137.059 C 314 135.779, 312.763 135.176, 311.250 135.718 M 183.500 138.523 C 180.750 139.287, 178.132 139.932, 177.683 139.956 C 177.233 139.980, 177.139 140.862, 177.473 141.916 C 177.808 142.970, 177.606 144.126, 177.024 144.485 C 176.443 144.844, 176.295 145.668, 176.696 146.316 C 177.096 146.964, 177.443 149.058, 177.467 150.970 C 177.502 153.773, 177.896 154.437, 179.505 154.409 C 185.173 154.306, 188.120 150.909, 183.172 150.180 C 181.110 149.877, 180.131 147.544, 181.767 146.833 C 183.076 146.265, 190.292 136.996, 189.370 137.067 C 188.892 137.105, 186.250 137.760, 183.500 138.523 M 298.027 138.692 C 299.387 139.623, 300.813 140.847, 301.196 141.413 C 301.578 141.979, 302.144 142.190, 302.452 141.881 C 303.413 140.920, 299.364 137, 297.410 137 C 295.846 137, 295.943 137.266, 298.027 138.692 M 159 141.531 C 159 142.339, 159.675 143, 160.500 143 C 161.325 143, 162 142.598, 162 142.107 C 162 141.616, 161.325 140.955, 160.500 140.638 C 159.586 140.288, 159 140.637, 159 141.531 M 350.750 141.689 C 348.612 142.248, 348.423 144, 350.500 144 C 352.172 144, 352.564 147.533, 351 148.500 C 349.489 149.434, 349.802 151, 351.500 151 C 352.325 151, 353 150.373, 353 149.607 C 353 148.841, 353.675 147.955, 354.500 147.638 C 355.325 147.322, 356 147.426, 356 147.871 C 356 148.315, 357.174 149.214, 358.609 149.868 C 360.500 150.729, 361.077 151.599, 360.703 153.027 C 360.142 155.174, 361.475 156.658, 362.490 155.016 C 362.835 154.457, 364.104 153.986, 365.309 153.968 C 367.343 153.939, 367.375 153.841, 365.750 152.608 C 364.788 151.877, 364 150.815, 364 150.248 C 364 149.681, 362.988 148.957, 361.750 148.640 C 360.512 148.322, 358.282 146.923, 356.794 145.531 C 355.305 144.139, 353.591 143, 352.985 143 C 352.378 143, 352.160 142.550, 352.500 142 C 352.840 141.450, 352.979 141.052, 352.809 141.116 C 352.639 141.180, 351.712 141.438, 350.750 141.689 M 222 144.015 C 223.333 144.891, 223.333 145.109, 222 145.985 C 220.764 146.796, 220.749 146.972, 221.917 146.985 C 222.696 146.993, 223.049 147.284, 222.702 147.631 C 222.355 147.979, 222.544 149.148, 223.123 150.229 C 224.163 152.172, 224.192 152.171, 225.619 150.134 C 226.982 148.188, 227.172 148.167, 229.031 149.759 C 231.467 151.845, 231.551 154.721, 229.250 157.317 C 227.967 158.765, 227.834 159.409, 228.750 159.729 C 229.438 159.970, 230 161.029, 230 162.083 C 230 163.531, 230.709 164, 232.893 164 C 235.670 164, 237 165.449, 237 168.473 C 237 169.194, 235.200 170.503, 233 171.383 C 230.800 172.264, 229 173.207, 229 173.479 C 229 173.751, 231.025 173.769, 233.500 173.519 C 237.999 173.064, 238 173.064, 237.978 176.282 C 237.966 178.052, 237.066 183.527, 235.978 188.449 C 233.632 199.064, 233.505 202.941, 235.418 205.557 C 237.210 208.007, 237.591 207.589, 240.132 200.390 C 241.806 195.648, 242.060 193.428, 241.434 189 C 241.006 185.975, 240.749 180.800, 240.862 177.500 C 241.157 168.912, 237.194 153.176, 234.250 151.245 C 233.012 150.434, 232 149.163, 232 148.420 C 232 146.157, 228.412 144.799, 226.983 146.521 C 226.307 147.334, 225.248 147.964, 224.628 147.921 C 223.809 147.864, 223.814 147.713, 224.644 147.373 C 226.596 146.573, 224.947 142.999, 222.633 143.015 C 220.883 143.028, 220.769 143.207, 222 144.015 M 156.458 145.068 C 156.095 145.656, 155.168 145.895, 154.399 145.600 C 153.592 145.290, 153 145.684, 153 146.531 C 153 147.339, 153.601 148, 154.335 148 C 155.069 148, 156.872 149.350, 158.342 151 C 161.028 154.014, 163 154.861, 163 153 C 163 152.450, 162.397 152, 161.661 152 C 159.961 152, 157.867 147.510, 158.634 145.512 C 159.291 143.800, 157.471 143.429, 156.458 145.068 M 287 144.969 C 287 145.501, 286.325 145.678, 285.500 145.362 C 283.699 144.670, 283.461 146.594, 285.250 147.388 C 285.938 147.692, 285.647 147.842, 284.604 147.721 C 283.561 147.599, 282.490 148.125, 282.224 148.889 C 281.929 149.736, 282.182 150.006, 282.870 149.580 C 283.492 149.196, 284 149.414, 284 150.063 C 284 150.944, 284.382 150.928, 285.500 150 C 286.740 148.971, 287 149.071, 287 150.578 C 287 152.076, 287.223 152.164, 288.250 151.075 C 289.250 150.015, 289.250 149.658, 288.250 149.292 C 286.457 148.634, 286.705 146, 288.559 146 C 289.416 146, 289.840 145.550, 289.500 145 C 288.710 143.721, 287 143.700, 287 144.969 M 275.217 149.891 C 271.817 152.844, 270.535 154.929, 268.999 160.004 C 266.130 169.478, 265.722 173.765, 266.888 182.152 C 268.061 190.583, 273.736 206.251, 275.417 205.701 C 277.449 205.035, 277.135 198.932, 274.535 188.549 C 272.380 179.941, 272.071 177.102, 272.719 171.859 C 273.467 165.807, 273.622 165.533, 276.403 165.319 C 280.657 164.993, 282.035 164.256, 281.415 162.639 C 281.112 161.849, 281.344 160.905, 281.932 160.542 C 283.804 159.385, 283.082 158, 280.607 158 C 279.291 158, 277.955 157.325, 277.638 156.500 C 276.984 154.795, 277.824 152, 278.990 152 C 280.068 152, 281.096 147.688, 280.217 146.853 C 279.823 146.478, 277.573 147.845, 275.217 149.891 M 147.299 148.250 C 146.779 148.938, 146.302 150.512, 146.239 151.750 C 146.156 153.387, 146.681 154, 148.169 154 C 149.529 154, 150.031 153.522, 149.666 152.573 C 149.365 151.788, 149.767 150.608, 150.559 149.951 C 151.352 149.293, 152 148.360, 152 147.878 C 152 146.543, 148.373 146.830, 147.299 148.250 M 371.167 151.817 C 369.493 153.552, 369.140 154.540, 369.917 155.317 C 370.694 156.094, 371 156.061, 371 155.200 C 371 154.540, 371.897 154, 372.994 154 C 374.414 154, 374.901 153.432, 374.686 152.026 C 374.248 149.155, 373.763 149.126, 371.167 151.817 M 196.761 151.208 C 196.507 151.964, 194.737 152.500, 192.499 152.500 C 190.325 152.500, 188.489 153.040, 188.252 153.750 C 187.989 154.535, 188.794 155, 190.417 155 C 191.838 155, 193 155.505, 193 156.122 C 193 156.902, 193.454 156.868, 194.487 156.011 C 196.204 154.586, 199.001 155.335, 198.999 157.219 C 198.998 157.923, 197.986 159.716, 196.749 161.203 C 192.760 165.996, 191 168.393, 191 169.030 C 191 169.917, 184.730 168.932, 183.339 167.826 C 181.639 166.475, 180.569 168.776, 182.061 170.573 C 183.006 171.712, 183.026 172.647, 182.147 174.577 C 180.056 179.166, 180.797 185.138, 184.376 192.528 C 188.008 200.030, 190.026 202.226, 199.860 209.376 C 209.832 216.627, 211.464 215.453, 205.247 205.500 C 201.536 199.558, 201.500 199.398, 201.500 189 C 201.500 182.051, 201.046 177.703, 200.157 176.143 C 198.056 172.452, 200.305 170.998, 203.488 173.989 C 206.607 176.919, 207.987 181.692, 207.994 189.573 C 208 195.106, 208.423 196.306, 212.750 203.065 L 217.500 210.484 218.072 221.492 C 218.711 233.799, 220.357 238.291, 226.471 244.405 C 230.617 248.550, 241.821 255, 244.877 255 C 248.060 255, 248.497 252.609, 246.576 245.699 C 244.175 237.062, 230.612 212.194, 223.653 203.666 C 216.884 195.372, 215.736 193.315, 214.070 186.500 C 213.399 183.750, 211.554 178.548, 209.972 174.940 C 208.248 171.010, 206.821 165.599, 206.412 161.440 C 205.578 152.953, 204.696 151.005, 202.008 151.708 C 200.898 151.999, 199.361 151.714, 198.592 151.076 C 197.521 150.188, 197.093 150.218, 196.761 151.208 M 306.207 151.361 C 307.733 152.520, 307.753 152.819, 306.397 154.175 C 305.563 155.009, 304.055 158.899, 303.047 162.819 C 302.038 166.738, 299.601 172.880, 297.630 176.465 C 295.468 180.398, 293.646 185.468, 293.039 189.242 C 292.345 193.549, 291.035 196.903, 288.836 200 C 281.556 210.253, 280.097 212.856, 277.485 220.241 C 275.979 224.499, 272.558 231.450, 269.882 235.687 C 264.666 243.946, 263.324 248.404, 263.842 255.750 C 264.099 259.410, 267.061 258.476, 276.612 251.724 C 282.882 247.291, 286.183 244.191, 287.850 241.170 C 291.600 234.372, 293.131 227.339, 292.461 220 C 291.930 214.189, 292.156 212.970, 294.593 208.500 C 300.662 197.367, 301 196.312, 301 188.516 C 301 180.377, 302.449 175.636, 305.868 172.589 C 308.778 169.996, 309.378 171.005, 307.888 175.981 C 306.886 179.324, 306.886 181.643, 307.888 187.603 C 309.308 196.057, 308.725 198.903, 303.759 207.746 C 301.272 212.176, 301.055 213.084, 302.362 213.585 C 304.208 214.294, 317.976 204.247, 321.023 199.968 C 325.545 193.617, 328.318 185.728, 328.040 180 C 327.894 176.975, 327.796 172.993, 327.823 171.150 C 327.867 168.156, 327.639 167.873, 325.686 168.481 C 319.495 170.408, 319.258 170.348, 317.372 166.349 C 316.374 164.232, 314.730 161.821, 313.718 160.991 C 311.535 159.202, 312.267 156.367, 315.147 155.453 C 318.343 154.439, 316.623 152.479, 312.759 152.732 C 310.604 152.874, 308.734 152.384, 307.985 151.482 C 307.309 150.667, 306.248 150.014, 305.628 150.032 C 305.007 150.049, 305.268 150.647, 306.207 151.361 M 348 151.803 C 348 152.310, 346.425 152.551, 344.500 152.339 C 341.863 152.048, 341 152.328, 341 153.476 C 341 154.314, 340.475 155, 339.833 155 C 339.192 155, 338.947 155.281, 339.290 155.624 C 339.633 155.966, 340.721 155.904, 341.707 155.485 C 343.389 154.770, 345.855 154.188, 348.750 153.824 C 350.251 153.635, 350.388 152.358, 349 151.500 C 348.450 151.160, 348 151.296, 348 151.803 M 164 153.513 C 164 154.106, 165.687 154.705, 167.748 154.844 C 170.698 155.042, 171.236 154.836, 170.276 153.876 C 168.741 152.341, 164 152.067, 164 153.513 M 289 154 C 289 154.550, 289.477 155, 290.059 155 C 290.641 155, 290.840 154.550, 290.500 154 C 290.160 153.450, 289.684 153, 289.441 153 C 289.198 153, 289 153.450, 289 154 M 124 157.500 C 124 158.325, 124.450 159, 125 159 C 125.550 159, 126 158.325, 126 157.500 C 126 156.675, 125.550 156, 125 156 C 124.450 156, 124 156.675, 124 157.500 M 215 157 C 215 157.550, 215.450 158, 216 158 C 216.550 158, 217 157.550, 217 157 C 217 156.450, 216.550 156, 216 156 C 215.450 156, 215 156.450, 215 157 M 386.553 156.915 C 386.231 157.436, 386.394 158.125, 386.915 158.447 C 387.436 158.769, 388.125 158.606, 388.447 158.085 C 388.769 157.564, 388.606 156.875, 388.085 156.553 C 387.564 156.231, 386.875 156.394, 386.553 156.915 M 128.032 157.667 C 128.077 158.859, 130.579 162, 131.483 162 C 131.902 162, 131.627 161.256, 130.872 160.346 C 130.118 159.437, 129.646 158.436, 129.825 158.121 C 130.004 157.807, 129.666 157.389, 129.075 157.192 C 128.484 156.995, 128.014 157.208, 128.032 157.667 M 294.223 158.713 C 294.792 160.920, 292.907 163.574, 291.658 162.325 C 291.296 161.963, 291 162.668, 291 163.892 C 291 165.337, 290.589 165.864, 289.830 165.395 C 289.043 164.909, 288.869 165.217, 289.299 166.336 C 289.716 167.423, 289.428 168, 288.469 168 C 287.661 168, 287 168.423, 287 168.941 C 287 170.614, 289.048 171.205, 290.544 169.964 C 291.345 169.299, 292 169.047, 292 169.403 C 292 170.601, 297.751 167.092, 298.351 165.528 C 299.120 163.525, 297.687 159.811, 295.431 157.959 C 293.810 156.629, 293.703 156.695, 294.223 158.713 M 381.543 157.930 C 381.257 158.393, 381.917 159.007, 383.011 159.293 C 384.105 159.579, 385 159.453, 385 159.013 C 385 157.838, 382.152 156.946, 381.543 157.930 M 148 159 C 148 159.550, 148.477 160, 149.059 160 C 149.641 160, 149.840 159.550, 149.500 159 C 149.160 158.450, 148.684 158, 148.441 158 C 148.198 158, 148 158.450, 148 159 M 213.250 160.496 C 211.729 162.223, 211.655 164.487, 213.035 167.066 C 214.109 169.073, 217 169.754, 217 168 C 217 167.450, 217.408 167, 217.906 167 C 218.405 167, 218.625 168.012, 218.395 169.250 C 218.154 170.552, 218.261 170.868, 218.651 170 C 219.021 169.175, 220.039 167.952, 220.912 167.282 C 222.255 166.252, 221.959 166.054, 219 166.001 C 216.130 165.950, 215.815 165.756, 217.250 164.920 C 219.558 163.575, 219.473 161.324, 217.066 160.035 C 214.696 158.767, 214.781 158.757, 213.250 160.496 M 316.813 160.683 C 317.534 160.972, 318.397 160.936, 318.729 160.604 C 319.061 160.272, 318.471 160.036, 317.417 160.079 C 316.252 160.127, 316.015 160.364, 316.813 160.683 M 149.314 167 L 149.500 173.500 144.557 173.769 C 141.839 173.917, 138.846 174.734, 137.907 175.584 C 136.772 176.611, 135.978 176.773, 135.540 176.065 C 135.178 175.479, 134.369 175, 133.741 175 C 132.919 175, 132.936 175.336, 133.800 176.200 C 135.525 177.925, 135.277 179.044, 133.336 178.299 C 132.217 177.869, 131.909 178.043, 132.395 178.830 C 132.803 179.490, 132.547 180.031, 131.809 180.070 C 131.089 180.109, 131.400 180.527, 132.500 181 C 133.600 181.473, 133.938 181.891, 133.250 181.930 C 132.563 181.968, 132 182.750, 132 183.667 C 132 184.583, 132.296 185.037, 132.658 184.675 C 133.020 184.313, 133.882 184.487, 134.574 185.061 C 135.501 185.831, 136.003 185.565, 136.483 184.053 C 137.251 181.635, 140.488 181.345, 142.643 183.500 C 143.468 184.325, 144.673 184.993, 145.321 184.985 C 146.177 184.974, 146.192 184.768, 145.376 184.235 C 143.952 183.304, 145.118 180.081, 147.728 177.735 C 149.609 176.044, 149.799 176.054, 152.257 177.987 C 153.691 179.116, 155.526 179.735, 156.419 179.393 C 158.138 178.733, 163 181.415, 163 183.023 C 163 183.560, 162.258 184, 161.351 184 C 159.469 184, 152.798 190.465, 153.724 191.391 C 154.059 191.726, 155.346 192, 156.583 192 C 157.821 192, 159.060 192.563, 159.338 193.250 C 159.732 194.227, 159.859 194.219, 159.921 193.215 C 159.979 192.272, 160.498 192.196, 161.869 192.930 C 163.710 193.915, 165 193.464, 165 191.833 C 165 191.375, 164.213 190.964, 163.250 190.921 C 162.205 190.874, 162.003 190.639, 162.750 190.338 C 163.438 190.060, 164 189.196, 164 188.417 C 164 186.363, 164.522 186.574, 170.384 191 C 173.298 193.200, 175.978 195, 176.341 195 C 177.773 195, 176.884 192.206, 174.878 190.405 C 173.712 189.357, 170.947 185.800, 168.735 182.500 C 163.700 174.987, 161.023 172, 159.326 172 C 158.597 172, 158 172.675, 158 173.500 C 158 174.325, 157.620 175, 157.155 175 C 155.759 175, 153 171.462, 153 169.671 C 153 168.752, 152.523 168, 151.941 168 C 151.359 168, 151.090 167.662, 151.344 167.250 C 151.599 166.838, 151.204 165.150, 150.467 163.500 C 149.190 160.642, 149.136 160.808, 149.314 167 M 361.500 163 C 361.160 163.550, 361.134 164, 361.441 164 C 361.748 164, 361.100 164.900, 360 166 C 358.900 167.100, 358 168.752, 358 169.671 C 358 170.590, 357.252 172.169, 356.338 173.179 C 354.782 174.898, 354.557 174.909, 352.831 173.347 C 351.084 171.766, 350.787 171.903, 347.243 175.909 C 345.184 178.237, 340.913 182.960, 337.750 186.405 C 328.335 196.663, 330.931 200.022, 340.915 190.500 C 344.086 187.475, 346.946 185, 347.271 185 C 347.951 185, 346.587 190.157, 345.341 192.296 C 344.878 193.090, 341.037 196.515, 336.804 199.907 C 332.572 203.299, 327.722 207.826, 326.027 209.965 C 324.333 212.105, 319.471 215.867, 315.223 218.325 C 303.746 224.966, 300.879 228.892, 299.408 239.984 L 298.702 245.303 302.943 244.625 C 308.458 243.743, 313.148 241.294, 321.835 234.759 C 331.654 227.372, 343.614 224.020, 342.816 228.877 C 342.670 229.770, 342.929 231.106, 343.393 231.846 C 343.976 232.776, 342.734 234.728, 339.368 238.171 C 333.406 244.270, 332.835 244.588, 322.483 247.589 C 312.284 250.546, 288.562 260.561, 280.328 265.387 C 276.987 267.345, 272.869 270.524, 271.176 272.452 C 266.649 277.608, 265.575 286, 269.442 286 C 270.269 286, 274.221 283.987, 278.223 281.526 C 282.225 279.066, 290.255 275.295, 296.067 273.147 C 312.356 267.125, 317 264.106, 317 259.534 C 317 258.385, 317.701 256.445, 318.557 255.223 C 320.224 252.842, 323.194 252.181, 322.925 254.250 C 322.286 259.177, 325.197 259.235, 330.836 254.408 C 334.867 250.958, 347 234.942, 347 233.072 C 347 232.574, 347.337 231.978, 347.750 231.747 C 348.163 231.517, 347.861 231.494, 347.080 231.698 C 344.954 232.252, 343.973 229.884, 345.638 228.219 C 346.440 227.417, 346.824 226.491, 346.493 226.160 C 346.162 225.829, 345.452 226.220, 344.915 227.029 C 344.212 228.089, 344.113 227.752, 344.560 225.820 C 345.105 223.469, 344.925 223.207, 343.091 223.686 C 341.892 224, 341 223.757, 341 223.117 C 341 222.502, 340.155 222, 339.122 222 C 338.090 222, 336.710 221.355, 336.056 220.567 C 335.110 219.428, 335.290 218.710, 336.933 217.067 C 338.070 215.930, 339.432 215, 339.960 215 C 340.487 215, 342.005 213.829, 343.333 212.397 C 345.384 210.184, 346.065 209.965, 347.873 210.932 C 349.043 211.558, 350 212.505, 350 213.035 C 350 213.566, 350.633 214, 351.406 214 C 352.320 214, 352.630 214.700, 352.290 216 C 351.916 217.429, 352.259 218, 353.492 218 C 354.832 218, 355.077 217.443, 354.589 215.500 C 354.075 213.452, 354.327 213, 355.981 213 C 357.091 213, 358 212.564, 358 212.031 C 358 211.499, 357.325 211.322, 356.500 211.638 C 355.646 211.966, 354.934 211.629, 354.848 210.857 C 354.764 210.111, 354.591 209.050, 354.463 208.500 C 354.335 207.950, 354.179 206.952, 354.115 206.281 C 354.052 205.611, 353.325 205.322, 352.500 205.638 C 351.543 206.006, 351 205.621, 351 204.576 C 351 203.674, 350.325 202.678, 349.500 202.362 C 348.675 202.045, 348 200.982, 348 200 C 348 199.018, 347.325 197.955, 346.500 197.638 C 343.410 196.453, 345.053 193.296, 348.425 193.940 C 350.450 194.327, 357 192.767, 357 191.898 C 357 191.389, 355.538 189.654, 353.750 188.043 C 351.066 185.624, 350.690 184.799, 351.588 183.307 C 352.187 182.313, 354.518 181.083, 356.768 180.573 C 361.084 179.594, 362.907 176.797, 360.846 174.315 C 360.258 173.606, 360.081 172.232, 360.453 171.263 C 360.825 170.293, 361.095 169.385, 361.053 169.245 C 361.011 169.105, 361.634 167.418, 362.438 165.495 C 363.747 162.360, 363.047 160.497, 361.500 163 M 345.520 165.750 C 346.038 167.645, 345.742 168, 343.649 168 C 342.282 168, 340.452 168.273, 339.582 168.607 C 338.499 169.023, 337.980 168.629, 337.937 167.357 C 337.884 165.806, 337.724 165.870, 336.969 167.750 C 335.966 170.245, 334.957 170.557, 333.287 168.887 C 331.452 167.052, 329.606 168.899, 331.326 170.849 C 332.127 171.757, 333.096 174.412, 333.479 176.750 C 333.862 179.088, 334.431 181, 334.742 181 C 335.054 181, 337.729 178.326, 340.686 175.057 C 343.644 171.789, 346.950 168.833, 348.032 168.490 C 349.114 168.146, 350 167.397, 350 166.826 C 350 166.254, 349.337 166.040, 348.526 166.351 C 347.716 166.662, 346.570 166.148, 345.979 165.208 C 345.071 163.765, 345 163.849, 345.520 165.750 M 168.691 166.364 C 168.286 167.419, 167.530 167.827, 166.808 167.381 C 165.332 166.469, 161 166.207, 161 167.029 C 161 167.356, 162.350 168.622, 164.001 169.843 C 165.652 171.063, 168.773 174.301, 170.937 177.039 C 173.101 179.777, 175.066 181.676, 175.304 181.258 C 175.543 180.841, 176.062 178.700, 176.458 176.500 C 176.855 174.300, 177.639 171.943, 178.201 171.263 C 179.366 169.854, 178.582 167, 177.031 167 C 176.464 167, 176 167.900, 176 169 C 176 172.666, 171.139 170.348, 169.814 166.051 C 169.460 164.903, 169.226 164.968, 168.691 166.364 M 379.362 166.500 C 379.678 167.325, 379.475 168, 378.910 168 C 378.344 168, 378.160 168.450, 378.500 169 C 379.660 170.877, 381.563 170.005, 381.771 167.500 C 381.912 165.791, 381.472 165, 380.382 165 C 379.374 165, 378.998 165.553, 379.362 166.500 M 134.020 170.524 C 134.716 171.362, 135.491 171.842, 135.743 171.591 C 136.436 170.897, 135.027 169, 133.819 169 C 133.155 169, 133.231 169.574, 134.020 170.524 M 275 171.977 C 275 173.090, 274.523 174, 273.941 174 C 273.359 174, 273.190 174.498, 273.566 175.107 C 274.012 175.829, 274.467 175.864, 274.875 175.208 C 275.219 174.654, 276.611 174.044, 277.968 173.851 L 280.437 173.500 277.718 171.727 C 275.072 170.001, 275 170.008, 275 171.977 M 376.694 170.639 C 375.895 171.438, 376.798 173, 378.059 173 C 378.577 173, 379 172.325, 379 171.500 C 379 169.954, 377.820 169.513, 376.694 170.639 M 366.191 173.933 C 362.940 174.731, 362.975 176.440, 366.250 176.816 C 367.762 176.990, 369 177.562, 369 178.085 C 369 179.150, 373.973 178.224, 375.433 176.888 C 375.947 176.418, 376.095 175.761, 375.763 175.429 C 374.651 174.317, 368.526 173.360, 366.191 173.933 M 234 178 C 233.099 178.582, 232.975 178.975, 233.691 178.985 C 234.346 178.993, 235.160 178.550, 235.500 178 C 236.267 176.758, 235.921 176.758, 234 178 M 87 179.789 C 87 180.970, 87.283 181.010, 88.500 180 C 89.325 179.315, 90 178.660, 90 178.544 C 90 178.428, 89.325 178.333, 88.500 178.333 C 87.675 178.333, 87 178.988, 87 179.789 M 373.241 180.986 C 371.639 183.551, 371.678 184, 373.500 184 C 374.325 184, 375 184.745, 375 185.655 C 375 187.137, 375.212 187.118, 377.024 185.479 C 378.293 184.330, 378.653 183.404, 377.990 182.994 C 377.408 182.634, 377.221 181.589, 377.573 180.670 C 378.512 178.222, 374.797 178.494, 373.241 180.986 M 224 185.309 C 224 186.029, 224.618 187.463, 225.373 188.496 C 226.693 190.301, 226.775 190.284, 227.480 188.062 C 227.966 186.532, 227.755 185.460, 226.857 184.890 C 224.924 183.665, 224 183.801, 224 185.309 M 281.015 184.750 C 281.050 186.442, 282.851 188.210, 283.888 187.569 C 285.738 186.426, 285.135 184, 283 184 C 281.900 184, 281.007 184.338, 281.015 184.750 M 99.158 189.500 C 99.158 191.150, 99.385 191.938, 99.662 191.250 C 99.940 190.563, 101.003 190, 102.024 190 C 103.046 190, 104.170 189.535, 104.521 188.966 C 104.921 188.319, 104.215 188.103, 102.638 188.389 C 101.241 188.642, 99.902 188.323, 99.637 187.673 C 99.373 187.028, 99.158 187.850, 99.158 189.500 M 374.500 189 C 374.160 189.550, 374.584 190, 375.441 190 C 376.298 190, 377 189.550, 377 189 C 377 188.450, 376.577 188, 376.059 188 C 375.541 188, 374.840 188.450, 374.500 189 M 406 188.845 C 406 189.310, 406.900 190.505, 408 191.500 C 409.998 193.308, 410.538 192.565, 409.393 189.582 C 408.766 187.948, 406 187.347, 406 188.845 M 144.065 189.960 C 142.888 190.687, 142.970 191.292, 144.567 193.665 C 146.411 196.403, 146.488 196.424, 146.804 194.279 C 147.264 191.158, 145.817 188.877, 144.065 189.960 M 148 191.059 C 148 191.641, 148.412 191.864, 148.915 191.553 C 149.418 191.242, 150.057 191.553, 150.336 192.244 C 150.641 193.002, 150.873 192.806, 150.921 191.750 C 150.964 190.787, 150.325 190, 149.500 190 C 148.675 190, 148 190.477, 148 191.059 M 360 191.047 C 360 191.515, 361.050 193.030, 362.334 194.415 C 364.922 197.208, 367 196.354, 367 192.498 C 367 190.782, 366.358 190.378, 363.500 190.297 C 361.575 190.243, 360 190.580, 360 191.047 M 390.699 190.645 C 391.497 190.970, 391.072 192.059, 389.426 193.906 C 388.066 195.432, 386.358 197.496, 385.629 198.492 C 384.357 200.233, 384.226 200.226, 382.326 198.326 C 381.238 197.238, 380.058 195.594, 379.705 194.674 C 379.008 192.858, 376.477 192.419, 375.531 193.950 C 375.208 194.472, 375.857 195.388, 376.972 195.985 C 378.087 196.582, 379 197.917, 379 198.952 C 379 199.987, 379.518 201.006, 380.152 201.217 C 381.866 201.789, 383.921 210.679, 382.636 211.964 C 382.040 212.560, 382.004 213.007, 382.550 213.015 C 383.072 213.024, 382.916 213.401, 382.203 213.854 C 381.166 214.511, 381.217 214.935, 382.453 215.961 C 383.743 217.031, 384 216.971, 384 215.597 C 384 214.564, 385.127 213.725, 387.021 213.346 C 390.786 212.593, 391.661 211.345, 389.013 210.504 C 386.985 209.860, 384.822 206.829, 384.335 203.944 C 384.190 203.089, 385.406 201.601, 387.036 200.638 C 388.666 199.675, 390 199.227, 390 199.643 C 390 200.060, 390.519 199.881, 391.153 199.247 C 391.900 198.500, 392.906 198.414, 394.006 199.003 C 395.433 199.767, 395.631 199.519, 395.236 197.457 C 394.978 196.105, 394.096 195, 393.275 195 C 392.183 195, 391.951 194.330, 392.411 192.500 C 392.906 190.524, 392.667 190.017, 391.269 190.079 C 390.296 190.122, 390.039 190.377, 390.699 190.645 M 118 191.845 C 118 192.721, 117.278 192.913, 115.750 192.443 C 114.513 192.063, 113.799 192.069, 114.165 192.457 C 114.531 192.846, 114.187 194.701, 113.401 196.582 C 112.105 199.685, 112.128 200, 113.658 200 C 114.584 200, 116.127 199.290, 117.087 198.422 C 118.862 196.814, 119.210 196.913, 124.834 200.614 C 125.017 200.735, 124.255 202.896, 123.140 205.417 C 121.680 208.718, 120.537 210, 119.056 210 C 117.925 210, 117 210.600, 117 211.333 C 117 212.877, 119.946 213.164, 121.691 211.790 C 122.548 211.116, 123.073 211.873, 123.565 214.494 C 124.232 218.048, 124.277 218.080, 125.464 215.818 C 126.425 213.986, 126.417 213.185, 125.425 212 C 124.414 210.793, 124.442 209.720, 125.570 206.500 C 126.340 204.300, 126.977 202.387, 126.985 202.250 C 126.993 202.113, 127.675 202, 128.500 202 C 129.325 202, 130 201.325, 130 200.500 C 130 199.675, 129.325 199, 128.500 199 C 127.675 199, 127 199.485, 127 200.077 C 127 201.307, 122.258 196.724, 119.707 193.027 C 118.768 191.668, 118 191.135, 118 191.845 M 131.566 193.669 C 128.776 195.179, 128.723 195.325, 130.507 196.629 C 133.103 198.527, 133.407 198.408, 134.694 195 C 135.981 191.591, 135.658 191.453, 131.566 193.669 M 165.198 194.750 C 165.668 196.528, 163.741 199.947, 161.949 200.516 C 160.877 200.856, 160 201.794, 160 202.599 C 160 203.404, 159.353 204.311, 158.563 204.614 C 157.773 204.917, 157.381 205.830, 157.693 206.642 C 158.056 207.588, 157.494 208.320, 156.130 208.676 C 153.655 209.323, 153.339 210.809, 155.500 211.638 C 156.325 211.955, 157 212.841, 157 213.607 C 157 215.715, 158.695 215.274, 159.287 213.012 C 159.954 210.460, 164.993 208.371, 166.113 210.182 C 166.541 210.875, 167.194 211.139, 167.565 210.769 C 167.935 210.398, 168.933 210.790, 169.781 211.638 C 171.096 212.953, 171.116 213.314, 169.912 214.075 C 168.584 214.916, 169.386 215.447, 171.408 215.066 C 171.908 214.971, 172.689 215.481, 173.143 216.197 C 173.821 217.266, 173.972 217.265, 173.985 216.191 C 173.993 215.471, 174.450 215.160, 175 215.500 C 175.550 215.840, 176 217.216, 176 218.559 C 176 220.346, 175.456 221, 173.969 221 C 172.851 221, 171.671 221.694, 171.346 222.542 C 170.710 224.198, 166.981 224.170, 165.783 222.500 C 165.348 221.893, 164.194 222.370, 162.850 223.711 C 160.867 225.689, 160.811 225.990, 162.317 226.568 C 164.204 227.292, 164.609 230.630, 162.880 231.207 C 161.473 231.676, 172.997 248.278, 177.211 251.853 C 181.662 255.628, 183.206 256.639, 185.717 257.422 C 187.530 257.988, 188.050 257.648, 188.575 255.557 C 188.928 254.151, 189.586 253, 190.037 253 C 191.819 253, 194 256.293, 194 258.983 C 194 263.071, 198.135 266.087, 209.129 270.017 C 214.283 271.860, 223.404 275.760, 229.398 278.684 C 235.392 281.608, 241.081 284, 242.041 284 C 246.121 284, 245.078 276.169, 240.080 269.269 C 235.619 263.112, 218.772 255.738, 193.500 248.883 C 181.466 245.619, 176.949 243.135, 169.910 235.908 C 166.614 232.523, 165.574 230.826, 166.332 230.068 C 167.089 229.311, 167.051 228.651, 166.200 227.800 C 164.603 226.203, 164.646 224.470, 166.250 225.760 C 166.938 226.313, 169.260 226.639, 171.412 226.484 C 177.063 226.078, 182.302 228.272, 189.660 234.127 C 196.185 239.319, 205.595 243.932, 209.750 243.976 C 212.654 244.007, 212.659 241.902, 209.769 234.339 C 207.060 227.247, 201.574 221.489, 193.347 217.104 C 189.529 215.069, 183.678 210.261, 177.339 203.949 C 168.626 195.271, 164.513 192.155, 165.198 194.750 M 397 201.903 C 397 203.252, 401.993 209, 403.165 209 C 403.624 209, 404 208.250, 404 207.333 C 404 206.417, 403.716 205.951, 403.368 206.298 C 403.021 206.646, 401.446 205.548, 399.868 203.859 C 398.291 202.170, 397 201.290, 397 201.903 M 108.500 203 C 108.160 203.550, 108.359 204, 108.941 204 C 109.523 204, 110 203.550, 110 203 C 110 202.450, 109.802 202, 109.559 202 C 109.316 202, 108.840 202.450, 108.500 203 M 106.443 206.418 C 104.280 208, 104.849 209.379, 107.280 208.446 C 108.942 207.808, 110.474 205, 109.160 205 C 108.732 205, 107.509 205.638, 106.443 206.418 M 146.636 206.494 C 146.952 207.316, 147.620 207.735, 148.121 207.425 C 149.170 206.777, 148.328 205, 146.972 205 C 146.472 205, 146.321 205.672, 146.636 206.494 M 363 206.800 C 363 207.790, 362.511 209.089, 361.913 209.687 C 361.131 210.469, 361.992 210.885, 364.988 211.170 C 367.277 211.389, 369.372 211.207, 369.644 210.767 C 369.916 210.327, 370.557 210.226, 371.069 210.543 C 371.581 210.859, 372 210.390, 372 209.500 C 372 208.610, 371.571 208.147, 371.046 208.472 C 369.484 209.437, 365 207.895, 365 206.392 C 365 205.626, 364.550 205, 364 205 C 363.450 205, 363 205.810, 363 206.800 M 138.752 208.858 C 135.681 210.693, 135.053 212.419, 137.750 211.610 C 138.713 211.322, 142.012 210.961, 145.083 210.808 C 148.710 210.627, 150.667 210.095, 150.667 209.290 C 150.667 208.608, 149.729 208.079, 148.583 208.115 C 147.438 208.150, 145.375 207.962, 144 207.697 C 142.625 207.432, 140.263 207.954, 138.752 208.858 M 392 211.883 C 392 212.369, 392.788 212.993, 393.750 213.270 C 394.712 213.547, 396.400 214.119, 397.500 214.543 C 398.964 215.106, 398.788 214.735, 396.842 213.156 C 394.076 210.912, 392 210.366, 392 211.883 M 139.559 213.905 C 139.192 214.499, 139.336 215.775, 139.879 216.742 C 140.815 218.409, 140.902 218.406, 141.566 216.683 C 142.371 214.591, 140.627 212.176, 139.559 213.905 M 366.667 213.667 C 365.620 214.714, 365.888 219, 367 219 C 367.550 219, 368 218.362, 368 217.582 C 368 216.802, 368.273 215.452, 368.607 214.582 C 369.212 213.005, 367.932 212.401, 366.667 213.667 M 109 215 C 109 215.550, 109.477 216, 110.059 216 C 110.641 216, 110.840 215.550, 110.500 215 C 110.160 214.450, 109.684 214, 109.441 214 C 109.198 214, 109 214.450, 109 215 M 103 216.741 C 103 217.369, 103.409 218.135, 103.910 218.444 C 105.139 219.204, 108 218.033, 108 216.771 C 108 216.125, 107.518 216.156, 106.676 216.854 C 105.710 217.656, 105.035 217.635, 104.176 216.776 C 103.316 215.916, 103 215.906, 103 216.741 M 401.855 218.299 C 403.150 219.703, 403.911 221.335, 403.546 221.926 C 403.181 222.517, 403.569 223, 404.410 223 C 405.357 223, 405.718 223.570, 405.362 224.500 C 404.997 225.450, 405.375 226, 406.393 226 C 408.412 226, 408.482 223.645, 406.511 222.009 C 405.692 221.329, 405.257 220.394, 405.544 219.929 C 405.831 219.465, 404.588 218.334, 402.783 217.415 L 399.500 215.746 401.855 218.299 M 155 218.559 C 155 219.416, 155.457 219.835, 156.016 219.490 C 156.575 219.144, 156.774 218.443, 156.457 217.931 C 155.600 216.544, 155 216.802, 155 218.559 M 140.500 220 C 140.840 220.550, 141.316 221, 141.559 221 C 141.802 221, 142 220.550, 142 220 C 142 219.450, 141.523 219, 140.941 219 C 140.359 219, 140.160 219.450, 140.500 220 M 122.500 222 C 121.771 223.180, 122.717 225, 124.059 225 C 124.577 225, 125 224.100, 125 223 C 125 220.891, 123.545 220.309, 122.500 222 M 383 223 C 383 224.311, 383.485 224.751, 384.500 224.362 C 385.325 224.045, 386 223.432, 386 223 C 386 222.568, 385.325 221.955, 384.500 221.638 C 383.485 221.249, 383 221.689, 383 223 M 411 227.500 C 411 228.477, 411.958 228.989, 413.750 228.968 C 416.384 228.938, 416.418 228.874, 414.559 227.468 C 412.085 225.597, 411 225.607, 411 227.500 M 146 227.800 C 146 228.240, 146.510 229.110, 147.133 229.733 C 147.978 230.578, 147.538 231.493, 145.408 233.326 L 142.549 235.785 146.164 237.295 C 151.815 239.656, 158.245 245.937, 157.737 248.598 C 157.433 250.184, 157.709 250.665, 158.701 250.284 C 159.516 249.972, 161.844 251.662, 164.335 254.376 C 167.342 257.651, 169.357 259, 171.240 259 C 173.831 259, 173.689 258.669, 165.587 245.844 C 158.391 234.454, 156.754 232.481, 153.388 231.148 C 151.249 230.300, 148.905 229.021, 148.179 228.304 C 146.663 226.809, 146 226.655, 146 227.800 M 114 229.400 C 114 230.830, 113.698 230.994, 112.658 230.131 C 111.920 229.519, 111.020 229.313, 110.658 229.675 C 109.391 230.942, 110.018 232, 112.035 232 C 113.721 232, 113.897 232.325, 113.059 233.890 C 112.265 235.374, 112.418 235.875, 113.774 236.227 C 116.052 236.818, 118.158 236.065, 117.447 234.915 C 117.136 234.412, 117.359 234, 117.941 234 C 118.523 234, 119 233.298, 119 232.441 C 119 231.584, 118.581 231.141, 118.068 231.458 C 117.556 231.774, 116.431 231.026, 115.568 229.794 C 114.186 227.821, 114 227.774, 114 229.400 M 116 229.059 C 116 229.641, 116.450 229.840, 117 229.500 C 117.550 229.160, 118 228.684, 118 228.441 C 118 228.198, 117.550 228, 117 228 C 116.450 228, 116 228.477, 116 229.059 M 134.559 229.532 C 133.491 230.339, 133.154 231, 133.809 231 C 134.464 231, 135 231.990, 135 233.200 C 135 234.826, 135.293 235.107, 136.122 234.278 C 136.739 233.661, 137.864 233.394, 138.622 233.685 C 140.255 234.312, 140.409 232.632, 138.965 229.934 C 137.737 227.641, 137.132 227.586, 134.559 229.532 M 368.980 229.524 C 368.284 230.362, 368.002 231.336, 368.353 231.687 C 369.220 232.554, 374 230.298, 374 229.021 C 374 227.451, 370.402 227.811, 368.980 229.524 M 394.695 228.706 C 394.277 229.370, 393.321 229.677, 392.569 229.388 C 391.817 229.100, 390.869 229.403, 390.462 230.062 C 389.991 230.824, 390.227 231.087, 391.111 230.786 C 391.875 230.526, 393.286 231.210, 394.248 232.307 C 395.668 233.927, 395.762 234.584, 394.748 235.811 C 393.644 237.147, 393.761 237.159, 395.762 235.913 C 397.006 235.138, 397.807 233.941, 397.543 233.252 C 397.279 232.563, 397.499 232, 398.031 232 C 398.564 232, 399 231.502, 399 230.893 C 399 230.284, 398.353 230.034, 397.563 230.338 C 396.712 230.664, 395.988 230.197, 395.789 229.195 C 395.551 227.993, 395.233 227.851, 394.695 228.706 M 354.726 232.712 C 351.168 235.154, 344.545 244.918, 339.097 255.750 L 336.959 260 339.616 260 C 341.499 260, 343.450 258.689, 346.316 255.500 C 349.955 251.451, 352.996 249.745, 353.002 251.750 C 353.004 252.162, 354.318 252.546, 355.924 252.603 C 357.935 252.673, 358.988 252.153, 359.308 250.930 C 359.846 248.874, 364.632 247.976, 367.205 249.449 C 369.855 250.966, 370.395 249.441, 368.676 245.293 C 367.811 243.207, 367.080 242.089, 367.052 242.809 C 367.023 243.529, 366.606 243.875, 366.125 243.577 C 365.644 243.280, 363.398 244.378, 361.134 246.018 C 356.828 249.137, 354.558 249.712, 353.473 247.957 C 352.515 246.406, 357.576 240.293, 362.274 237.327 L 366.388 234.730 363.638 232.365 C 360.238 229.441, 359.445 229.472, 354.726 232.712 M 175.669 232.421 C 174.716 234.904, 178.201 237.800, 183 238.514 L 187.500 239.183 184 235.692 C 179.878 231.581, 176.500 230.255, 175.669 232.421 M 329.131 235.020 C 326.757 236.740, 325.057 238.390, 325.353 238.686 C 326.077 239.410, 336 236.992, 336 236.091 C 336 235.701, 335.426 234.597, 334.724 233.637 C 333.538 232.015, 333.145 232.112, 329.131 235.020 M 115 239 C 113.718 239.828, 113.754 239.972, 115.250 239.985 C 116.213 239.993, 117 239.550, 117 239 C 117 237.780, 116.887 237.780, 115 239 M 125.557 239.908 C 125.249 240.407, 125.418 241.869, 125.935 243.158 C 126.813 245.349, 126.877 245.290, 126.937 242.250 C 127.001 238.964, 126.581 238.251, 125.557 239.908 M 380.609 239.824 C 380.256 240.395, 380.455 241.163, 381.050 241.531 C 382.536 242.449, 383.062 241.719, 382.071 240.114 C 381.539 239.255, 381.024 239.152, 380.609 239.824 M 119.408 243.149 C 119.165 243.541, 119.459 244.165, 120.059 244.536 C 120.772 244.977, 120.394 246.016, 118.968 247.534 C 117.768 248.812, 117.023 250.452, 117.314 251.179 C 117.654 252.031, 117.870 251.857, 117.921 250.691 C 117.969 249.588, 118.451 249.161, 119.155 249.595 C 119.829 250.012, 120.039 249.872, 119.660 249.259 C 119.303 248.682, 119.721 247.937, 120.588 247.605 C 122.993 246.682, 123.523 246.877, 122.200 248.200 C 120.748 249.652, 120.589 252.372, 122.007 251.496 C 122.561 251.153, 123.304 251.689, 123.659 252.687 C 124.439 254.880, 127.024 258, 128.061 258 C 129.355 258, 127.890 254.210, 125.900 252.410 C 124.855 251.464, 124 249.829, 124 248.778 C 124 247.283, 124.464 247.012, 126.125 247.540 C 127.555 247.994, 128.027 247.852, 127.566 247.107 C 127.190 246.498, 126.234 246, 125.441 246 C 124.648 246, 124 245.128, 124 244.062 C 124 242.717, 123.365 242.172, 121.924 242.281 C 120.782 242.367, 119.650 242.758, 119.408 243.149 M 142.291 244.620 C 141.325 246.702, 141.348 247.490, 142.405 248.548 C 143.374 249.517, 144.026 249.574, 144.837 248.763 C 145.649 247.951, 146.623 247.963, 148.473 248.806 C 151 249.957, 151.939 252, 149.941 252 C 149.359 252, 149.196 252.508, 149.579 253.128 C 150.056 253.900, 150.565 253.742, 151.188 252.628 C 151.689 251.733, 152.977 251, 154.050 251 C 155.122 251, 156 250.550, 156 250 C 156 249.450, 155.613 249, 155.141 249 C 154.668 249, 152.306 247.429, 149.891 245.510 C 144.631 241.329, 143.861 241.238, 142.291 244.620 M 97.123 252.893 C 95.249 254.518, 95.172 254.898, 96.494 255.995 C 97.322 256.682, 98 256.953, 98 256.597 C 98 256.240, 99.350 256.647, 101 257.500 C 104.130 259.119, 105.095 258.154, 102.500 256 C 101.675 255.315, 101 254.162, 101 253.437 C 101 251.189, 99.354 250.959, 97.123 252.893 M 408 253.933 C 408 255.010, 408.918 256.157, 410.075 256.524 C 412.853 257.406, 413.412 256.632, 411.829 254.097 C 410.187 251.468, 408 251.374, 408 253.933 M 403.208 255.732 C 402.216 256.087, 402.186 256.520, 403.081 257.597 C 404.586 259.411, 406 259.392, 406 257.559 C 406 255.806, 404.940 255.113, 403.208 255.732 M 108.961 257.547 C 107.935 258.783, 107.511 258.834, 106.854 257.797 C 106.241 256.832, 106.027 256.948, 106.015 258.250 C 106.007 259.225, 106.740 260, 107.671 260 C 108.590 260, 110.242 260.788, 111.341 261.750 C 113.262 263.433, 113.308 263.423, 112.536 261.500 C 112.094 260.400, 111.765 258.712, 111.804 257.750 C 111.893 255.586, 110.661 255.498, 108.961 257.547 M 399 256.578 C 399 257.140, 399.540 258.140, 400.200 258.800 C 401.133 259.733, 401.022 260, 399.700 260 C 398.765 260, 398 260.450, 398 261 C 398 262.257, 400.032 262.266, 402 261.018 C 403.284 260.203, 403.176 259.741, 401.250 257.811 C 400.012 256.570, 399 256.016, 399 256.578 M 359.096 258.596 C 357.059 259.456, 354.375 259.786, 352.411 259.417 C 347.760 258.545, 345.461 260.231, 350 261.186 C 351.925 261.590, 355.975 262.439, 359 263.072 C 363.528 264.019, 370.633 266.238, 374.245 267.833 C 374.660 268.017, 375 267.454, 375 266.583 C 375 265.598, 374.132 265, 372.700 265 C 371.435 265, 369.860 264.460, 369.200 263.800 C 367.753 262.353, 367.587 259.627, 369 260.500 C 369.550 260.840, 370 260.589, 370 259.942 C 370 259.221, 369.144 258.991, 367.787 259.345 C 366.537 259.672, 364.905 259.322, 364.037 258.542 C 362.728 257.365, 361.995 257.373, 359.096 258.596 M 141.440 259.097 C 141.133 259.594, 141.584 260, 142.441 260 C 144.294 260, 144.547 262.870, 142.750 263.502 C 139.194 264.753, 136.013 264.721, 134.936 263.423 C 134.287 262.640, 133.275 262, 132.689 262 C 132.103 262, 132.562 262.875, 133.709 263.944 C 134.857 265.013, 135.974 266.423, 136.192 267.076 C 136.482 267.946, 137.405 267.842, 139.634 266.689 C 141.309 265.823, 145.677 264.592, 149.340 263.955 C 156.410 262.723, 157.384 261.818, 153.750 259.855 C 151.023 258.381, 142.217 257.839, 141.440 259.097 M 158.500 258.963 C 156.709 259.699, 156.677 259.858, 158.192 260.477 C 160.458 261.404, 163.238 260.790, 163.750 259.250 C 164.218 257.847, 161.567 257.702, 158.500 258.963 M 123.687 261.805 C 120.676 264.947, 120.254 266.223, 122.513 265.357 C 123.345 265.037, 124.695 265.332, 125.513 266.011 C 126.720 267.013, 127 266.953, 127 265.694 C 127 264.841, 127.748 263.395, 128.662 262.481 C 130.067 261.076, 130.106 260.680, 128.912 259.925 C 126.872 258.633, 126.649 258.714, 123.687 261.805 M 166 265.046 C 166 265.621, 169.835 267.932, 174.522 270.181 C 181.238 273.404, 184.550 274.378, 190.153 274.779 C 199.868 275.474, 199.004 273.738, 186.923 268.288 C 179.392 264.891, 176.345 264.033, 171.750 264.019 C 168.403 264.008, 166 264.437, 166 265.046 M 324.250 268.744 C 314.861 273.044, 311.359 276.026, 315.750 275.983 C 323.098 275.910, 346 267.638, 346 265.057 C 346 264.434, 343.639 264.010, 340.250 264.025 C 335.554 264.045, 332.621 264.911, 324.250 268.744 M 116.750 265.689 C 115.787 265.941, 115 266.612, 115 267.180 C 115 267.749, 115.712 267.941, 116.582 267.607 C 117.452 267.273, 118.577 267, 119.082 267 C 119.587 267, 120 266.550, 120 266 C 120 264.960, 119.663 264.928, 116.750 265.689 M 346.869 270.858 C 341.150 274.497, 340.090 276, 343.241 276 C 344.538 276, 346.164 276.563, 346.854 277.250 C 347.858 278.251, 348.446 278.058, 349.804 276.283 C 351.621 273.908, 356.432 273.432, 355.556 275.715 C 354.885 277.463, 356.520 277.338, 358.357 275.500 C 359.182 274.675, 360.339 274, 360.929 274 C 361.518 274, 362 273.550, 362 273 C 362 272.450, 361.339 272, 360.531 272 C 359.637 272, 359.288 271.414, 359.638 270.500 C 360.049 269.430, 359.538 268.996, 357.857 268.986 C 356.561 268.979, 354.600 268.734, 353.500 268.442 C 352.278 268.118, 349.698 269.058, 346.869 270.858 M 113.584 270.641 C 113.057 272.014, 113.204 272.076, 114.477 271.019 C 116.212 269.579, 116.393 269, 115.107 269 C 114.616 269, 113.931 269.739, 113.584 270.641 M 134.500 270 C 134.160 270.550, 134.359 271, 134.941 271 C 135.523 271, 136 270.550, 136 270 C 136 269.450, 135.802 269, 135.559 269 C 135.316 269, 134.840 269.450, 134.500 270 M 404.543 270.931 C 404.226 271.443, 404.425 272.144, 404.984 272.490 C 405.543 272.835, 406 272.416, 406 271.559 C 406 269.802, 405.400 269.544, 404.543 270.931 M 373.813 271.683 C 374.534 271.972, 375.397 271.936, 375.729 271.604 C 376.061 271.272, 375.471 271.036, 374.417 271.079 C 373.252 271.127, 373.015 271.364, 373.813 271.683 M 413.158 277 C 413.158 278.375, 413.385 278.938, 413.662 278.250 C 413.940 277.563, 413.940 276.438, 413.662 275.750 C 413.385 275.063, 413.158 275.625, 413.158 277 M 125 282 C 125 282.550, 125.477 283, 126.059 283 C 126.641 283, 126.840 282.550, 126.500 282 C 126.160 281.450, 125.684 281, 125.441 281 C 125.198 281, 125 281.450, 125 282 M 306 419.022 C 309.206 420.214, 316.665 421.566, 323.882 422.263 L 336.265 423.457 339.838 427.229 C 341.804 429.303, 344.026 431, 344.776 431 C 345.982 431, 360.850 425.227, 361.917 424.345 C 363.812 422.776, 352.138 421.234, 332.631 420.476 C 320.305 419.997, 312.615 419.208, 303 417.436 C 301.625 417.183, 302.975 417.896, 306 419.022 M 145.500 418.867 C 140.947 420.844, 151.404 421.634, 179.500 421.437 C 203.141 421.271, 209.147 420.948, 212 419.690 C 215.294 418.236, 214.706 418.185, 202 418.823 C 184.968 419.677, 170.291 419.644, 157.500 418.721 C 152 418.324, 146.600 418.390, 145.500 418.867 M 249.891 425.600 C 245.901 434.679, 243.181 437.182, 234.149 440.091 C 226.307 442.617, 224.319 443.844, 223.841 446.451 C 223.597 447.788, 224.350 448.584, 226.500 449.264 C 230.017 450.376, 278.478 450.842, 279.554 449.774 C 280.896 448.441, 277.784 445.982, 269.032 441.463 C 264.261 438.998, 259.161 435.733, 257.699 434.208 C 255.265 431.667, 255.130 431.112, 256.097 427.609 C 257.145 423.816, 255.872 418, 253.994 418 C 253.574 418, 251.728 421.420, 249.891 425.600 M 267.594 424.656 C 267.159 428.907, 267.295 431.695, 267.970 432.370 C 268.552 432.952, 272.510 435.245, 276.764 437.464 C 282.273 440.338, 285.196 442.579, 286.918 445.250 C 288.580 447.828, 290.067 449, 291.678 449 C 294.540 449, 310.641 445.467, 314.546 443.982 L 317.377 442.906 313.323 438.853 C 309.445 434.975, 308.884 434.755, 300.385 433.778 C 290.565 432.649, 288.066 431.642, 280 425.565 C 274.403 421.348, 269.391 418, 268.673 418 C 268.455 418, 267.969 420.995, 267.594 424.656 M 234.828 423.909 C 227.772 431.911, 224.579 433.267, 211.107 433.981 C 204.723 434.320, 198.498 435.147, 197.273 435.821 C 194.586 437.299, 192.491 440.900, 193.657 442.034 C 194.659 443.009, 210.001 447, 212.745 447 C 214.014 447, 215.304 445.600, 216.579 442.837 C 218.382 438.929, 218.986 438.516, 226.432 436.087 C 231.837 434.324, 234.939 432.703, 236.169 431 C 238.297 428.053, 241.172 419, 239.980 419 C 239.526 419, 237.208 421.209, 234.828 423.909 M 286 419.883 C 286 421.362, 292.847 426.933, 295.268 427.424 C 296.496 427.673, 300.603 428.149, 304.396 428.481 C 312.628 429.203, 314.104 429.881, 320.132 435.711 L 324.763 440.192 331.822 437.918 C 337.942 435.947, 338.756 435.412, 337.942 433.892 C 335.575 429.469, 331.604 428.042, 318.551 426.927 C 306.176 425.869, 297.275 423.920, 289.750 420.618 C 287.688 419.713, 286 419.383, 286 419.883 M 218.500 424.212 C 214.525 425.896, 211.244 426.359, 202.500 426.470 C 196.450 426.547, 189.434 426.962, 186.910 427.394 C 183.983 427.895, 177.882 427.603, 170.068 426.590 C 155.787 424.737, 156 424.748, 156 425.842 C 156 427.519, 180.352 438, 184.249 438 C 185.455 438, 188.314 436.145, 190.665 433.838 L 194.906 429.676 207.203 429.012 C 219.867 428.328, 223.186 427.390, 225.012 423.977 C 226.394 421.395, 225.032 421.445, 218.500 424.212" stroke="none" fill="" fill-rule="evenodd"/>
</svg>